<svg width="16" height="16" viewBox="0 0 16 16" fill="none" xmlns="http://www.w3.org/2000/svg">
<path d="M13.3332 14C13.3332 13.0696 13.3332 12.6045 13.2184 12.2259C12.9598 11.3737 12.2928 10.7067 11.4406 10.4481C11.062 10.3333 10.5969 10.3333 9.6665 10.3333H6.33317C5.4028 10.3333 4.9376 10.3333 4.55908 10.4481C3.7068 10.7067 3.03986 11.3737 2.78133 12.2259C2.6665 12.6045 2.6665 13.0696 2.6665 14M10.9998 5C10.9998 6.65685 9.6567 8 7.99984 8C6.34298 8 4.99984 6.65685 4.99984 5C4.99984 3.34315 6.34298 2 7.99984 2C9.6567 2 10.9998 3.34315 10.9998 5Z" stroke="#9999AD" stroke-width="1.33333" stroke-linecap="round" stroke-linejoin="round"/>
</svg>
