<svg width="24" height="24" viewBox="0 0 24 24" fill="none" xmlns="http://www.w3.org/2000/svg">
<g clip-path="url(#clip0_16580_38195)">
<path d="M23.9262 20.3678C23.9286 20.7776 23.8319 21.1833 23.6424 21.5579C23.4529 21.9324 23.175 22.2673 22.8271 22.5403C22.4792 22.8133 22.0692 23.0182 21.6243 23.1414C21.1795 23.2647 20.7099 23.3034 20.2467 23.255C19.432 23.1491 18.6895 22.785 18.159 22.2314C17.6285 21.6778 17.3467 20.9728 17.3667 20.2492V3.03321C17.3473 2.30909 17.6299 1.60373 18.1613 1.05006C18.6927 0.496383 19.4362 0.132645 20.2517 0.0273941C20.7144 -0.0201629 21.1834 0.0191428 21.6276 0.142713C22.0718 0.266283 22.4811 0.471302 22.8284 0.744218C23.1758 1.01713 23.4532 1.35173 23.6424 1.72588C23.8317 2.10004 23.9284 2.50523 23.9262 2.91467V20.3678Z" fill="#F9AB00"/>
<path d="M3.28046 17.5141C4.15051 17.514 4.98498 17.8176 5.60028 18.3582C6.21558 18.8988 6.56131 19.632 6.56142 20.3966C6.56153 21.1612 6.21601 21.8945 5.60086 22.4352C4.98572 22.976 4.15134 23.2798 3.28128 23.2799C2.41123 23.2799 1.57681 22.9762 0.961584 22.4355C0.346361 21.8949 0.000732422 21.1616 0.000732422 20.397C0.000732422 19.6324 0.346361 18.8991 0.961584 18.3585C1.57681 17.8178 2.4104 17.5141 3.28046 17.5141ZM11.9122 8.77807C11.0367 8.82037 10.2142 9.16037 9.61894 9.72613C9.02364 10.2919 8.70221 11.039 8.72266 11.8093V19.5512C8.72266 21.653 9.77452 22.9279 11.3163 23.1999C11.7943 23.2852 12.2878 23.2759 12.7612 23.1727C13.2346 23.0695 13.6758 22.875 14.053 22.6033C14.4302 22.3316 14.7338 21.9895 14.9418 21.6018C15.1498 21.2142 15.257 20.7907 15.2556 20.3621V11.6748C15.2564 11.2949 15.172 10.9186 15.0072 10.5674C14.8425 10.2162 14.6006 9.8969 14.2954 9.62784C13.9903 9.35878 13.6278 9.14518 13.2286 8.99925C12.8295 8.85332 12.4016 8.77792 11.9693 8.77734L11.913 8.77807H11.9122Z" fill="#E37400"/>
</g>
<defs>
<clipPath id="clip0_16580_38195">
<rect width="24" height="24" fill="white"/>
</clipPath>
</defs>
</svg>
