<svg width="12" height="12" viewBox="0 0 12 12" fill="none" xmlns="http://www.w3.org/2000/svg">
<path d="M8.5 4.5L5.78285 7.21715C5.68385 7.31615 5.63435 7.36565 5.57725 7.3842C5.52705 7.40055 5.47295 7.40055 5.42275 7.3842C5.36565 7.36565 5.31615 7.31615 5.21715 7.21715L4.28285 6.28285C4.18384 6.18385 4.13433 6.13435 4.07725 6.1158C4.02704 6.09945 3.97295 6.09945 3.92274 6.1158C3.86566 6.13435 3.81616 6.18385 3.71715 6.28285L1.5 8.5M8.5 4.5H6.5M8.5 4.5V6.5M3.9 10.5H8.1C8.9401 10.5 9.3601 10.5 9.681 10.3365C9.96325 10.1927 10.1927 9.96325 10.3365 9.681C10.5 9.3601 10.5 8.9401 10.5 8.1V3.9C10.5 3.05992 10.5 2.63988 10.3365 2.31902C10.1927 2.03677 9.96325 1.8073 9.681 1.66349C9.3601 1.5 8.9401 1.5 8.1 1.5H3.9C3.05992 1.5 2.63988 1.5 2.31902 1.66349C2.03677 1.8073 1.8073 2.03677 1.66349 2.31902C1.5 2.63988 1.5 3.05992 1.5 3.9V8.1C1.5 8.9401 1.5 9.3601 1.66349 9.681C1.8073 9.96325 2.03677 10.1927 2.31902 10.3365C2.63988 10.5 3.05992 10.5 3.9 10.5Z" stroke="#9999AD" stroke-linecap="round" stroke-linejoin="round"/>
</svg>
