<svg width="12" height="12" viewBox="0 0 12 12" fill="none" xmlns="http://www.w3.org/2000/svg">
<path d="M8.5 5V4C8.5 2.61929 7.3807 1.5 6 1.5C4.61929 1.5 3.5 2.61929 3.5 4V5M6 7.25V8.25M4.4 10.5H7.6C8.4401 10.5 8.8601 10.5 9.181 10.3365C9.46325 10.1927 9.6927 9.96325 9.8365 9.681C10 9.3601 10 8.9401 10 8.1V7.4C10 6.5599 10 6.1399 9.8365 5.819C9.6927 5.53675 9.46325 5.3073 9.181 5.1635C8.8601 5 8.4401 5 7.6 5H4.4C3.55992 5 3.13988 5 2.81902 5.1635C2.53677 5.3073 2.3073 5.53675 2.16349 5.819C2 6.1399 2 6.5599 2 7.4V8.1C2 8.9401 2 9.3601 2.16349 9.681C2.3073 9.96325 2.53677 10.1927 2.81902 10.3365C3.13988 10.5 3.55992 10.5 4.4 10.5Z" stroke="#9999AD" stroke-linecap="round" stroke-linejoin="round"/>
</svg>
