<svg width="15" height="14" viewBox="0 0 15 14" fill="none" xmlns="http://www.w3.org/2000/svg">
<path d="M4.99835 8.66506H9.66502M4.99835 5.33173H7.33169M8.77877 12.9254C11.5674 12.74 13.7888 10.4872 13.9716 7.65897C14.0073 7.10551 14.0073 6.53231 13.9716 5.97884C13.7888 3.15063 11.5674 0.897792 8.77877 0.712419C7.82737 0.649179 6.8341 0.649312 5.88464 0.712419C3.09596 0.897792 0.874644 3.15063 0.691864 5.97884C0.656097 6.53231 0.656097 7.10551 0.691864 7.65897C0.758437 8.68904 1.21399 9.64277 1.75031 10.4481C2.06171 11.0119 1.8562 11.7156 1.53184 12.3302C1.29798 12.7734 1.18104 12.995 1.27493 13.1551C1.36882 13.3152 1.57854 13.3203 1.99799 13.3305C2.82748 13.3507 3.38682 13.1155 3.83082 12.7881C4.08264 12.6024 4.20855 12.5096 4.29533 12.4989C4.3821 12.4882 4.55288 12.5586 4.89438 12.6992C5.2013 12.8256 5.55768 12.9036 5.88464 12.9254C6.8341 12.9885 7.82737 12.9886 8.77877 12.9254Z" stroke="#9999AD" stroke-width="1.33" stroke-linecap="round" stroke-linejoin="round"/>
</svg>
