<svg width="10" height="10" viewBox="0 0 10 10" fill="none" xmlns="http://www.w3.org/2000/svg">
<path d="M7.9 4C8.46005 4 8.7401 4 8.954 3.89101C9.14215 3.79514 9.29515 3.64215 9.391 3.45399C9.5 3.24008 9.5 2.96006 9.5 2.4V2.1C9.5 1.53995 9.5 1.25992 9.391 1.04601C9.29515 0.85785 9.14215 0.704865 8.954 0.608995C8.7401 0.5 8.46005 0.5 7.9 0.5H2.1C1.53995 0.5 1.25992 0.5 1.04601 0.608995C0.857845 0.704865 0.704865 0.857845 0.608995 1.04601C0.5 1.25992 0.5 1.53994 0.5 2.1V2.4C0.5 2.96005 0.5 3.24008 0.608995 3.45399C0.704865 3.64215 0.857845 3.79514 1.04601 3.89101C1.25992 4 1.53994 4 2.1 4H7.9Z" stroke="#1447E6" stroke-linecap="round" stroke-linejoin="round"/>
<path d="M7.9 9.5C8.46005 9.5 8.7401 9.5 8.954 9.391C9.14215 9.29515 9.29515 9.14215 9.391 8.954C9.5 8.7401 9.5 8.46005 9.5 7.9V7.6C9.5 7.03995 9.5 6.7599 9.391 6.546C9.29515 6.35785 9.14215 6.20485 8.954 6.109C8.7401 6 8.46005 6 7.9 6H2.1C1.53995 6 1.25992 6 1.04601 6.109C0.857845 6.20485 0.704865 6.35785 0.608995 6.546C0.5 6.7599 0.5 7.03995 0.5 7.6V7.9C0.5 8.46005 0.5 8.7401 0.608995 8.954C0.704865 9.14215 0.857845 9.29515 1.04601 9.391C1.25992 9.5 1.53994 9.5 2.1 9.5H7.9Z" stroke="#1447E6" stroke-linecap="round" stroke-linejoin="round"/>
</svg>
