<svg width="24" height="24" viewBox="0 0 24 24" fill="none" xmlns="http://www.w3.org/2000/svg">
<g clip-path="url(#clip0_46_18254)">
<path d="M5.33325 12.0004L11.7614 15.2145C11.8489 15.2582 11.8926 15.2801 11.9385 15.2887C11.9791 15.2963 12.0208 15.2963 12.0614 15.2887C12.1073 15.2801 12.151 15.2582 12.2385 15.2145L18.6666 12.0004M5.33325 15.3337L11.7614 18.5478C11.8489 18.5915 11.8926 18.6134 11.9385 18.622C11.9791 18.6296 12.0208 18.6296 12.0614 18.622C12.1073 18.6134 12.151 18.5915 12.2385 18.5478L18.6666 15.3337M5.33325 8.66703L11.7614 5.45296C11.8489 5.40923 11.8926 5.38737 11.9385 5.37877C11.9791 5.37114 12.0208 5.37114 12.0614 5.37877C12.1073 5.38737 12.151 5.40923 12.2385 5.45296L18.6666 8.66703L12.2385 11.8811C12.151 11.9249 12.1073 11.9467 12.0614 11.9553C12.0208 11.9629 11.9791 11.9629 11.9385 11.9553C11.8926 11.9467 11.8489 11.9249 11.7614 11.8811L5.33325 8.66703Z" stroke="#060510" stroke-width="1.33333" stroke-linecap="round" stroke-linejoin="round"/>
</g>
<defs>
<clipPath id="clip0_46_18254">
<rect width="16" height="16" fill="white" transform="translate(4 4)"/>
</clipPath>
</defs>
</svg>
