<svg width="14" height="15" viewBox="0 0 14 15" fill="none" xmlns="http://www.w3.org/2000/svg">
<path d="M0.665039 2.99837H12.665M9.36884 2.99837L8.91377 2.05953C8.61144 1.43588 8.46024 1.12405 8.19951 0.929579C8.14171 0.886439 8.08044 0.848066 8.01637 0.814839C7.72764 0.665039 7.38111 0.665039 6.68804 0.665039C5.97757 0.665039 5.62237 0.665039 5.32883 0.821119C5.26377 0.855712 5.20169 0.895639 5.14323 0.940486C4.87947 1.14284 4.73213 1.46607 4.43745 2.11255L4.03365 2.99837M11.665 2.99841L11.2519 9.68181C11.1463 11.3893 11.0936 12.2431 10.6656 12.857C10.4539 13.1605 10.1815 13.4166 9.86551 13.6091C9.22644 13.9984 8.37104 13.9984 6.66017 13.9984C4.94712 13.9984 4.09057 13.9984 3.45107 13.6083C3.13491 13.4155 2.86237 13.1589 2.65083 12.8549C2.22296 12.2401 2.17134 11.3851 2.06811 9.67521L1.66504 2.99841" stroke="#F0001C" stroke-width="1.33" stroke-linecap="round"/>
</svg>
