<svg width="16" height="16" viewBox="0 0 16 16" fill="none" xmlns="http://www.w3.org/2000/svg">
<path d="M9.49992 8.00016C9.49992 8.36836 9.79839 8.66683 10.1666 8.66683C10.5348 8.66683 10.8333 8.36836 10.8333 8.00016C10.8333 7.63196 10.5348 7.3335 10.1666 7.3335C9.79839 7.3335 9.49992 7.63196 9.49992 8.00016Z" stroke="#9999AD" stroke-width="1.33333" stroke-linecap="round" stroke-linejoin="round"/>
<path d="M9.49992 12.6667C9.49992 13.0349 9.79838 13.3333 10.1666 13.3333C10.5348 13.3333 10.8333 13.0349 10.8333 12.6667C10.8333 12.2985 10.5348 12 10.1666 12C9.79838 12 9.49992 12.2985 9.49992 12.6667Z" stroke="#9999AD" stroke-width="1.33333" stroke-linecap="round" stroke-linejoin="round"/>
<path d="M9.49992 3.33317C9.49992 3.70136 9.7984 3.99984 10.1666 3.99984C10.5348 3.99984 10.8333 3.70136 10.8333 3.33317C10.8333 2.96498 10.5348 2.6665 10.1666 2.6665C9.79839 2.6665 9.49992 2.96498 9.49992 3.33317Z" stroke="#9999AD" stroke-width="1.33333" stroke-linecap="round" stroke-linejoin="round"/>
<path d="M5.16657 8.00016C5.16657 8.36836 5.46504 8.66683 5.83324 8.66683C6.20144 8.66683 6.49991 8.36836 6.49991 8.00016C6.49991 7.63196 6.20144 7.3335 5.83324 7.3335C5.46504 7.3335 5.16657 7.63196 5.16657 8.00016Z" stroke="#9999AD" stroke-width="1.33333" stroke-linecap="round" stroke-linejoin="round"/>
<path d="M5.16657 12.6667C5.16657 13.0349 5.46504 13.3333 5.83324 13.3333C6.20144 13.3333 6.49991 13.0349 6.49991 12.6667C6.49991 12.2985 6.20144 12 5.83324 12C5.46504 12 5.16657 12.2985 5.16657 12.6667Z" stroke="#9999AD" stroke-width="1.33333" stroke-linecap="round" stroke-linejoin="round"/>
<path d="M5.16657 3.33317C5.16657 3.70136 5.46505 3.99984 5.83324 3.99984C6.20143 3.99984 6.49991 3.70136 6.49991 3.33317C6.49991 2.96498 6.20144 2.6665 5.83324 2.6665C5.46504 2.6665 5.16657 2.96498 5.16657 3.33317Z" stroke="#9999AD" stroke-width="1.33333" stroke-linecap="round" stroke-linejoin="round"/>
</svg>
