<svg width="24" height="24" viewBox="0 0 24 24" fill="none" xmlns="http://www.w3.org/2000/svg">
<g clip-path="url(#clip0_16580_34307)">
<path d="M12.0147 14.6289L7.10668 18.7736L5.03223 17.3781V18.9419L12 23.2186L18.9677 18.9419V17.3781L16.9087 18.7736L12.0147 14.6289Z" fill="#3984FF"/>
<path d="M12 23.2186L18.9677 18.9419V17.3781L16.9088 18.7736L12.0147 14.6289" fill="#3984FF"/>
<path d="M12 13.7346L4.88168 9.30469L0 13.2449L7.06026 17.8905L12 13.7346Z" fill="#3984FF"/>
<path d="M0 13.2461L7.06026 17.8916L12 13.7358" fill="#3984FF"/>
<path d="M12 13.7354L16.9405 17.8913L24 13.2461L19.1191 9.30469H19.1187L12 13.7354Z" fill="#3984FF"/>
<path d="M16.9404 17.8913L23.9999 13.2461L19.119 9.30469H19.1186" fill="#3984FF"/>
<path d="M16.9405 0.78125L12.0008 5.0006H12L19.1191 9.30435L23.9245 5.4117L16.9405 0.78125Z" fill="#3984FF"/>
<path d="M19.119 9.30435L23.9999 5.4117L16.9404 0.78125" fill="#3984FF"/>
<path d="M12.0007 5.00061L7.06022 0.78125L0.000732422 5.39583L4.88164 9.38293L12 5.00061H12.0007Z" fill="#3984FF"/>
<path d="M4.88159 9.36744L11.9999 5.0006H12.0007L7.06017 0.78125" fill="#3984FF"/>
</g>
<defs>
<clipPath id="clip0_16580_34307">
<rect width="24" height="24" fill="white"/>
</clipPath>
</defs>
</svg>
