<svg width="15" height="15" viewBox="0 0 15 15" fill="none" xmlns="http://www.w3.org/2000/svg">
<path d="M2.66454 9.32954C1.56025 9.32954 0.665043 8.43433 0.665042 7.33004L0.66504 2.66504C0.66504 1.56047 1.56047 0.665039 2.66504 0.665039H7.33004C8.43433 0.665039 9.32954 1.56025 9.32954 2.66454M9.66234 7.71625V11.6042M7.71838 9.6602H11.6063M7.46334 13.995H11.8622H11.995C13.0996 13.995 13.995 13.0996 13.995 11.995V11.8622C13.995 10.1444 13.995 9.18121 13.995 7.46334V7.33054C13.995 6.22597 13.0996 5.33054 11.995 5.33054H11.8622H7.46334H7.33054C6.22597 5.33054 5.33054 6.22597 5.33054 7.33054V7.46334V11.8622V11.995C5.33054 13.0996 6.22597 13.995 7.33054 13.995H7.46334Z" stroke="#9999AD" stroke-width="1.33" stroke-linecap="round" stroke-linejoin="round"/>
</svg>
