<svg width="35" height="24" viewBox="0 0 35 24" fill="none" xmlns="http://www.w3.org/2000/svg">
<g clip-path="url(#clip0_16580_38177)">
<g clip-path="url(#clip1_16580_38177)">
<path d="M14.2705 2.63036C15.3751 1.47939 16.913 0.765522 18.6139 0.765522C20.8749 0.765522 22.8475 2.02628 23.898 3.8979C24.8109 3.49004 25.8213 3.26313 26.8845 3.26313C30.9624 3.26313 34.2685 6.59804 34.2685 10.7116C34.2685 14.8256 30.9624 18.1605 26.8845 18.1605C26.396 18.1608 25.9088 18.1123 25.43 18.0156C24.5049 19.6657 22.7421 20.7806 20.7187 20.7806C19.8717 20.7806 19.0706 20.585 18.3572 20.2371C17.4195 22.4429 15.2346 23.9896 12.6882 23.9896C10.0364 23.9896 7.77636 22.3117 6.90886 19.9585C6.52976 20.039 6.13699 20.081 5.73396 20.081C2.57669 20.081 0.0170898 17.4951 0.0170898 14.3046C0.0170898 12.1666 1.1671 10.2998 2.87576 9.30105C2.52399 8.49164 2.32832 7.59825 2.32832 6.659C2.32832 2.98991 5.30703 0.015625 8.98102 0.015625C11.1381 0.015625 13.0551 1.04121 14.2705 2.63036Z" fill="#00A1E0"/>
<path d="M4.9782 12.4481C4.95673 12.5042 4.98601 12.516 4.99284 12.5257C5.05722 12.5725 5.12264 12.6062 5.1885 12.6438C5.53784 12.8292 5.8677 12.8833 6.21265 12.8833C6.91524 12.8833 7.35142 12.5096 7.35142 11.908V11.8963C7.35142 11.34 6.85914 11.138 6.39708 10.9922L6.33708 10.9727C5.9887 10.8594 5.68815 10.7619 5.68815 10.5326V10.5204C5.68815 10.3242 5.8638 10.1798 6.13606 10.1798C6.43856 10.1798 6.79767 10.2803 7.02893 10.4081C7.02893 10.4081 7.09674 10.4521 7.12164 10.3862C7.13528 10.3511 7.2524 10.0359 7.26461 10.0017C7.27777 9.96462 7.25436 9.93729 7.23046 9.92265C6.96649 9.76213 6.60152 9.65234 6.2239 9.65234L6.15365 9.65282C5.51058 9.65282 5.06172 10.0412 5.06172 10.5979V10.6096C5.06172 11.1966 5.55694 11.3869 6.02096 11.5196L6.0956 11.5425C6.43373 11.6464 6.72502 11.7357 6.72502 11.9738V11.9856C6.72502 12.2032 6.53573 12.3651 6.23028 12.3651C6.11172 12.3651 5.73358 12.3627 5.3252 12.1046C5.2759 12.0758 5.24713 12.0548 5.20908 12.0319C5.18909 12.0192 5.13882 11.9972 5.11688 12.0636L4.9782 12.4481ZM15.2638 12.4481C15.2424 12.5042 15.2717 12.516 15.2785 12.5257C15.3429 12.5725 15.4083 12.6062 15.4741 12.6438C15.8235 12.8292 16.1534 12.8833 16.4983 12.8833C17.2008 12.8833 17.6371 12.5096 17.6371 11.908V11.8963C17.6371 11.34 17.1448 11.138 16.6827 10.9922L16.6227 10.9727C16.2743 10.8594 15.9737 10.7619 15.9737 10.5326V10.5204C15.9737 10.3242 16.1494 10.1798 16.4216 10.1798C16.7241 10.1798 17.0832 10.2803 17.3145 10.4081C17.3145 10.4081 17.3824 10.4521 17.4072 10.3862C17.4209 10.3511 17.538 10.0359 17.5502 10.0017C17.5634 9.96462 17.5399 9.93729 17.516 9.92265C17.2521 9.76213 16.8871 9.65234 16.5095 9.65234L16.4392 9.65282C15.7961 9.65282 15.3473 10.0412 15.3473 10.5979V10.6096C15.3473 11.1966 15.8425 11.3869 16.3065 11.5196L16.3811 11.5425C16.7193 11.6464 17.0111 11.7357 17.0111 11.9738V11.9856C17.0111 12.2032 16.8213 12.3651 16.5158 12.3651C16.3973 12.3651 16.0192 12.3627 15.6108 12.1046C15.5615 12.0758 15.5322 12.0558 15.4952 12.0319C15.4824 12.0236 15.4229 12.0006 15.4024 12.0636L15.2638 12.4481ZM22.2856 11.2697C22.2856 11.6098 22.2222 11.8776 22.0973 12.067C21.9738 12.2543 21.7869 12.3456 21.5264 12.3456C21.2654 12.3456 21.0795 12.2548 20.958 12.067C20.835 11.8781 20.7726 11.6098 20.7726 11.2697C20.7726 10.9301 20.835 10.6627 20.958 10.4754C21.0795 10.29 21.2654 10.1997 21.5264 10.1997C21.787 10.1997 21.9738 10.29 22.0978 10.4754C22.2222 10.6627 22.2856 10.9301 22.2856 11.2697ZM22.8721 10.6393C22.8145 10.4446 22.7247 10.2729 22.6052 10.1299C22.4856 9.98649 22.3344 9.87136 22.1548 9.78743C21.9758 9.70401 21.764 9.66157 21.5264 9.66157C21.2883 9.66157 21.0766 9.70401 20.8975 9.78743C20.7179 9.87136 20.5667 9.98653 20.4467 10.1299C20.3276 10.2734 20.2378 10.4451 20.1798 10.6393C20.1227 10.833 20.0939 11.0448 20.0939 11.2697C20.0939 11.4947 20.1227 11.7069 20.1798 11.9001C20.2378 12.0943 20.3272 12.266 20.4472 12.4095C20.5667 12.5529 20.7185 12.6676 20.8975 12.749C21.0771 12.8305 21.2883 12.872 21.5265 12.872C21.7641 12.872 21.9753 12.8305 22.1549 12.749C22.3339 12.6676 22.4856 12.5529 22.6052 12.4095C22.7248 12.2665 22.8145 12.0948 22.8721 11.9001C22.9297 11.7064 22.9585 11.4941 22.9585 11.2697C22.9585 11.0453 22.9296 10.833 22.8721 10.6393ZM27.6881 12.2547C27.6686 12.1976 27.6135 12.2191 27.6135 12.2191C27.5281 12.2518 27.4373 12.2821 27.3407 12.2972C27.2426 12.3123 27.1348 12.3201 27.0191 12.3201C26.7352 12.3201 26.5098 12.2357 26.3483 12.0688C26.1863 11.902 26.0956 11.6322 26.0965 11.2672C26.0975 10.9349 26.1775 10.6851 26.3215 10.4948C26.4644 10.3056 26.682 10.2084 26.9723 10.2084C27.2144 10.2084 27.3988 10.2362 27.592 10.2972C27.592 10.2972 27.6383 10.3172 27.6603 10.2567C27.7115 10.1142 27.7495 10.0123 27.8042 9.85566C27.8198 9.81126 27.7818 9.79223 27.7681 9.78685C27.692 9.75709 27.5124 9.70881 27.3768 9.68831C27.2499 9.6688 27.1016 9.65855 26.9367 9.65855C26.6902 9.65855 26.4707 9.70052 26.2829 9.78445C26.0955 9.86786 25.9365 9.983 25.8106 10.1265C25.6847 10.2699 25.5891 10.4416 25.5252 10.6358C25.4618 10.8295 25.4296 11.0423 25.4296 11.2672C25.4296 11.7536 25.5608 12.1469 25.8199 12.4348C26.0794 12.7236 26.4693 12.8705 26.9777 12.8705C27.2783 12.8705 27.5866 12.8095 27.8082 12.7221C27.8082 12.7221 27.8506 12.7016 27.8321 12.6524L27.6881 12.2547ZM28.7142 10.9439C28.742 10.7551 28.7943 10.598 28.8748 10.4755C28.9963 10.2896 29.1816 10.1877 29.4422 10.1877C29.7028 10.1877 29.875 10.2901 29.9984 10.4755C30.0804 10.598 30.116 10.762 30.1302 10.9439H28.7142ZM30.6888 10.5287C30.6391 10.3408 30.5156 10.151 30.4346 10.0642C30.3068 9.9266 30.1819 9.83049 30.058 9.7768C29.896 9.70751 29.7018 9.66167 29.4891 9.66167C29.2412 9.66167 29.0163 9.70316 28.8338 9.78901C28.6508 9.87489 28.4972 9.99201 28.3766 10.1379C28.2561 10.2833 28.1654 10.4565 28.1078 10.6531C28.0497 10.8488 28.0204 11.062 28.0204 11.2869C28.0204 11.5157 28.0507 11.729 28.1107 11.9207C28.1712 12.1139 28.2678 12.2842 28.3986 12.4252C28.5288 12.5672 28.6967 12.6784 28.8977 12.756C29.0973 12.8331 29.3398 12.8731 29.6183 12.8726C30.1917 12.8706 30.4937 12.7428 30.6181 12.674C30.6401 12.6618 30.661 12.6403 30.6346 12.5789L30.5049 12.2153C30.4854 12.1612 30.4302 12.1812 30.4302 12.1812C30.2882 12.2339 30.0863 12.3285 29.6154 12.3276C29.3075 12.3271 29.0792 12.2364 28.9362 12.0943C28.7894 11.949 28.7176 11.7352 28.7049 11.4337L30.6903 11.4357C30.6903 11.4357 30.7424 11.4347 30.7479 11.3839C30.7498 11.3625 30.8162 10.9761 30.6888 10.5287ZM12.8147 10.9439C12.843 10.7551 12.8948 10.598 12.9753 10.4755C13.0967 10.2896 13.2822 10.1877 13.5427 10.1877C13.8032 10.1877 13.9755 10.2901 14.0994 10.4755C14.1809 10.598 14.2165 10.762 14.2306 10.9439H12.8147ZM14.7888 10.5287C14.7391 10.3408 14.6161 10.151 14.5351 10.0642C14.4073 9.9266 14.2824 9.83049 14.1585 9.7768C13.9965 9.70751 13.8023 9.66167 13.5896 9.66167C13.3422 9.66167 13.1168 9.70316 12.9343 9.78901C12.7514 9.87489 12.5976 9.99201 12.4771 10.1379C12.3566 10.2833 12.2659 10.4565 12.2083 10.6531C12.1507 10.8488 12.121 11.062 12.121 11.2869C12.121 11.5157 12.1512 11.729 12.2112 11.9207C12.2718 12.1139 12.3684 12.2842 12.4991 12.4252C12.6294 12.5672 12.7972 12.6784 12.9982 12.756C13.1978 12.8331 13.4403 12.8731 13.7189 12.8726C14.2922 12.8706 14.5942 12.7428 14.7186 12.674C14.7406 12.6618 14.7616 12.6403 14.7352 12.5789L14.6059 12.2153C14.5859 12.1612 14.5308 12.1812 14.5308 12.1812C14.3888 12.2339 14.1873 12.3285 13.7155 12.3276C13.4081 12.3271 13.1798 12.2364 13.0368 12.0943C12.8899 11.949 12.8182 11.7352 12.8055 11.4337L14.7908 11.4357C14.7908 11.4357 14.843 11.4347 14.8484 11.3839C14.8503 11.3625 14.9166 10.9761 14.7888 10.5287ZM8.52351 12.2439C8.44592 12.1819 8.43519 12.1663 8.40886 12.1263C8.36981 12.0653 8.34982 11.9784 8.34982 11.8682C8.34982 11.6935 8.40738 11.5681 8.52694 11.4837C8.5255 11.4842 8.69772 11.3349 9.10267 11.3402C9.3871 11.3441 9.64129 11.3861 9.64129 11.3861V12.2887H9.64177C9.64177 12.2887 9.38953 12.3429 9.10558 12.36C8.70159 12.3844 8.52204 12.2434 8.52351 12.2439ZM9.31342 10.8489C9.23292 10.8431 9.12848 10.8396 9.00358 10.8396C8.83332 10.8396 8.66888 10.8611 8.5147 10.9026C8.35956 10.944 8.22001 11.009 8.09998 11.0948C7.98013 11.1803 7.88162 11.2924 7.81212 11.4222C7.74186 11.5529 7.70624 11.7071 7.70624 11.8799C7.70624 12.0555 7.73648 12.2082 7.797 12.3331C7.85751 12.4585 7.94484 12.5629 8.05606 12.6435C8.16632 12.724 8.30247 12.783 8.46053 12.8186C8.61619 12.8542 8.79279 12.8723 8.98602 12.8723C9.18948 12.8723 9.39245 12.8557 9.58908 12.822C9.78375 12.7888 10.0228 12.7405 10.0892 12.7254C10.1357 12.7142 10.182 12.7023 10.2282 12.6898C10.2775 12.6776 10.2736 12.6249 10.2736 12.6249L10.2726 10.8094C10.2726 10.4112 10.1663 10.116 9.95696 9.93308C9.74861 9.75061 9.44172 9.65834 9.04506 9.65834C8.89623 9.65834 8.65668 9.67888 8.51322 9.70765C8.51322 9.70765 8.07948 9.79158 7.90088 9.93112C7.90088 9.93112 7.86186 9.95553 7.88333 10.0102L8.02386 10.3878C8.04142 10.4366 8.08877 10.42 8.08877 10.42C8.08877 10.42 8.10389 10.4142 8.12148 10.4039C8.50352 10.1961 8.98654 10.2024 8.98654 10.2024C9.20124 10.2024 9.36615 10.2453 9.47737 10.3307C9.58568 10.4137 9.64081 10.539 9.64081 10.8035V10.8874C9.53199 10.8721 9.42283 10.8592 9.31342 10.8489ZM25.3258 9.82597C25.3409 9.78105 25.3092 9.75959 25.296 9.75472C25.2624 9.74156 25.0936 9.70593 24.9633 9.69764C24.714 9.68252 24.5755 9.72448 24.4515 9.78009C24.3285 9.8357 24.1919 9.92546 24.1158 10.0275V9.78596C24.1158 9.75229 24.0919 9.72544 24.0587 9.72544H23.5498C23.5167 9.72544 23.4928 9.75225 23.4928 9.78596V12.7471C23.4928 12.7803 23.5201 12.8076 23.5532 12.8076H24.0748C24.0908 12.8075 24.1061 12.8011 24.1173 12.7897C24.1286 12.7784 24.1349 12.763 24.1348 12.7471V11.2678C24.1348 11.0692 24.1568 10.8711 24.2007 10.7467C24.2437 10.6237 24.3022 10.5252 24.3744 10.4544C24.4471 10.3841 24.5296 10.3349 24.6198 10.3071C24.712 10.2787 24.814 10.2695 24.8862 10.2695C24.9902 10.2695 25.1043 10.2963 25.1043 10.2963C25.1423 10.3007 25.1638 10.2773 25.1765 10.2426C25.2107 10.1519 25.3073 9.8801 25.3258 9.82597Z" fill="white"/>
<path d="M20.4298 8.45406C20.3664 8.43455 20.3088 8.42135 20.2337 8.40722C20.1575 8.39358 20.0668 8.38672 19.9639 8.38672C19.6047 8.38672 19.3217 8.4882 19.1232 8.68823C18.9256 8.88732 18.7914 9.19031 18.724 9.58895L18.6996 9.72311H18.2488C18.2488 9.72311 18.1942 9.72115 18.1825 9.78071L18.1088 10.194C18.1034 10.233 18.1206 10.2579 18.1732 10.2579H18.6119L18.1669 12.7423C18.1322 12.9424 18.0922 13.1068 18.0478 13.2317C18.0044 13.3547 17.9619 13.4468 17.9092 13.5142C17.8585 13.5786 17.8107 13.6264 17.7277 13.6542C17.6594 13.6771 17.5804 13.6879 17.494 13.6879C17.4462 13.6879 17.3823 13.68 17.335 13.6703C17.2881 13.661 17.2632 13.6508 17.2276 13.6356C17.2276 13.6356 17.1764 13.6161 17.1559 13.6674C17.1398 13.7098 17.0227 14.0313 17.0085 14.0709C16.9949 14.1104 17.0144 14.1411 17.0392 14.1504C17.0978 14.1709 17.1412 14.1845 17.2208 14.2036C17.3311 14.2294 17.4242 14.2309 17.5115 14.2309C17.694 14.2309 17.8609 14.205 17.999 14.1553C18.1376 14.105 18.2585 14.0177 18.3659 13.8996C18.4815 13.7718 18.5542 13.6381 18.6235 13.4551C18.6923 13.2746 18.7514 13.0502 18.7982 12.7887L19.2456 10.2579H19.8994C19.8994 10.2579 19.9545 10.2598 19.9658 10.1998L20.0399 9.78705C20.0448 9.74755 20.0282 9.72314 19.975 9.72314H19.3402C19.3437 9.70902 19.3724 9.48551 19.4451 9.27527C19.4764 9.18599 19.5349 9.11327 19.5842 9.06348C19.633 9.0147 19.6891 8.98007 19.7506 8.96004C19.8135 8.93954 19.8853 8.9298 19.9639 8.9298C20.0234 8.9298 20.0824 8.93663 20.1268 8.94588C20.1883 8.95908 20.2121 8.96591 20.2283 8.97081C20.2932 8.99032 20.3019 8.97129 20.3147 8.94009L20.4664 8.52342C20.482 8.47843 20.4435 8.4594 20.4298 8.45406ZM11.5608 12.7477C11.5608 12.7809 11.5369 12.8077 11.5037 12.8077H10.9773C10.9441 12.8077 10.9207 12.7809 10.9207 12.7477V8.51066C10.9207 8.47751 10.9441 8.45066 10.9773 8.45066H11.5037C11.5369 8.45066 11.5608 8.47751 11.5608 8.51066V12.7477Z" fill="white"/>
</g>
</g>
<defs>
<clipPath id="clip0_16580_38177">
<rect width="34.2857" height="24" fill="white"/>
</clipPath>
<clipPath id="clip1_16580_38177">
<rect width="34.2857" height="24" fill="white"/>
</clipPath>
</defs>
</svg>
