<svg width="12" height="12" viewBox="0 0 12 12" fill="none" xmlns="http://www.w3.org/2000/svg">
<path d="M1.25 6H2.94098C3.28358 6 3.59678 6.19355 3.75 6.5C3.90322 6.80645 4.21641 7 4.55901 7H7.441C7.7836 7 8.0968 6.80645 8.25 6.5C8.4032 6.19355 8.7164 6 9.059 6H10.75M4.48328 2H7.5167C8.05515 2 8.32435 2 8.56205 2.08198C8.77225 2.15448 8.9637 2.2728 9.12255 2.42838C9.30215 2.6043 9.42255 2.8451 9.66335 3.32668L10.7466 5.49325C10.8411 5.68225 10.8883 5.77675 10.9217 5.87575C10.9513 5.96375 10.9727 6.05425 10.9855 6.14615C11 6.2496 11 6.35525 11 6.56655V7.6C11 8.4401 11 8.8601 10.8365 9.181C10.6927 9.46325 10.4632 9.6927 10.181 9.8365C9.8601 10 9.4401 10 8.6 10H3.4C2.55992 10 2.13988 10 1.81902 9.8365C1.53677 9.6927 1.3073 9.46325 1.16349 9.181C1 8.8601 1 8.4401 1 7.6V6.56655C1 6.35525 1 6.2496 1.01449 6.14615C1.02736 6.05425 1.04872 5.96375 1.07831 5.87575C1.11163 5.77675 1.15888 5.68225 1.25338 5.49325L2.33665 3.32668C2.57745 2.84509 2.69785 2.6043 2.87748 2.42838C3.03632 2.2728 3.22775 2.15448 3.43794 2.08198C3.67562 2 3.94485 2 4.48328 2Z" stroke="#9999AD" stroke-linecap="round" stroke-linejoin="round"/>
</svg>
