<svg width="24" height="24" viewBox="0 0 24 24" fill="none" xmlns="http://www.w3.org/2000/svg">
<g clip-path="url(#clip0_16580_38237)">
<path d="M18.3157 5.68234L12.6316 5.05078L5.68417 5.68234L5.05249 11.9982L5.68405 18.314L11.9999 19.1035L18.3157 18.314L18.9473 11.8404L18.3157 5.68234Z" fill="white"/>
<path d="M8.27525 15.4828C7.80317 15.1638 7.47629 14.6981 7.29785 14.0823L8.39369 13.6307C8.49317 14.0097 8.66681 14.3033 8.91473 14.5118C9.16109 14.7202 9.46109 14.8228 9.81161 14.8228C10.1701 14.8228 10.478 14.7138 10.7353 14.4959C10.9925 14.278 11.1221 14.0001 11.1221 13.6638C11.1221 13.3197 10.9863 13.0385 10.7147 12.8207C10.4432 12.6029 10.1021 12.4938 9.69473 12.4938H9.06161V11.4092H9.62993C9.98045 11.4092 10.2758 11.3145 10.5158 11.125C10.7558 10.9355 10.8758 10.6766 10.8758 10.3466C10.8758 10.0529 10.7684 9.81916 10.5537 9.64396C10.339 9.46876 10.0673 9.38032 9.73733 9.38032C9.41525 9.38032 9.15941 9.46564 8.96993 9.63772C8.78045 9.8098 8.64305 10.0214 8.55629 10.2708L7.47161 9.81928C7.61525 9.41188 7.87901 9.05188 8.26577 8.74084C8.65265 8.4298 9.14681 8.27344 9.74681 8.27344C10.1905 8.27344 10.5899 8.35876 10.9437 8.53084C11.2973 8.70292 11.5753 8.94136 11.7758 9.24448C11.9763 9.54916 12.0758 9.89032 12.0758 10.2692C12.0758 10.656 11.9827 10.9828 11.7963 11.2512C11.6099 11.5197 11.381 11.7249 11.1094 11.8686V11.9333C11.4679 12.0833 11.7599 12.3123 11.9905 12.6202C12.2194 12.9281 12.3346 13.296 12.3346 13.7255C12.3346 14.155 12.2257 14.5386 12.0077 14.875C11.7898 15.2114 11.4883 15.4766 11.1062 15.6692C10.7225 15.8618 10.2915 15.9597 9.81305 15.9597C9.25889 15.9612 8.74733 15.8018 8.27525 15.4828Z" fill="#1A73E8"/>
<path d="M15.0001 10.0448L13.8032 10.9148L13.2017 10.0022L15.3601 8.44531H16.1875V15.789H15.0001V10.0448Z" fill="#1A73E8"/>
<path d="M18.3159 23.9981L24 18.3139L21.1579 17.0508L18.3159 18.3139L17.0527 21.156L18.3159 23.9981Z" fill="#EA4335"/>
<path d="M4.42114 21.1585L5.68426 24.0006H18.3158V18.3164H5.68426L4.42114 21.1585Z" fill="#34A853"/>
<path d="M1.89468 0C0.84792 0 0 0.84792 0 1.89468V18.3157L2.84208 19.5788L5.68416 18.3157V5.68416H18.3157L19.5788 2.84208L18.3158 0H1.89468Z" fill="#4285F4"/>
<path d="M0 18.3164V22.1059C0 23.1528 0.84792 24.0006 1.89468 24.0006H5.68416V18.3164H0Z" fill="#188038"/>
<path d="M18.3159 5.685V18.3166H24.0001V5.685L21.158 4.42188L18.3159 5.685Z" fill="#FBBC04"/>
<path d="M24.0001 5.68416V1.89468C24.0001 0.8478 23.1522 0 22.1054 0H18.3159V5.68416H24.0001Z" fill="#1967D2"/>
</g>
<defs>
<clipPath id="clip0_16580_38237">
<rect width="24" height="24" fill="white"/>
</clipPath>
</defs>
</svg>
