<svg width="24" height="24" viewBox="0 0 24 24" fill="none" xmlns="http://www.w3.org/2000/svg">
<g clip-path="url(#clip0_16580_20588)">
<mask id="mask0_16580_20588" style="mask-type:luminance" maskUnits="userSpaceOnUse" x="0" y="0" width="24" height="24">
<path d="M24 0H0V24H24V0Z" fill="white"/>
</mask>
<g mask="url(#mask0_16580_20588)">
<path d="M24 0H0V24H24V0Z" fill="white"/>
<mask id="mask1_16580_20588" style="mask-type:luminance" maskUnits="userSpaceOnUse" x="1" y="0" width="22" height="25">
<path d="M22.5 0.375H1.125V24.75H22.5V0.375Z" fill="white"/>
</mask>
<g mask="url(#mask1_16580_20588)">
<path d="M21.7412 11.5033C21.2179 10.6104 20.4818 9.89459 19.5616 9.35601C18.8737 8.95904 18.1606 8.707 17.3572 8.59893V5.76209C18.1609 5.4238 18.6593 4.67474 18.6593 3.80129C18.6593 2.61051 17.6964 1.64568 16.4966 1.64568C15.2956 1.64568 14.3157 2.61051 14.3157 3.80129C14.3157 4.67496 14.7857 5.4238 15.5892 5.76209V8.6002C14.9465 8.69219 14.2798 8.89098 13.6711 9.19619C12.4274 8.25978 8.35015 5.1877 5.96515 3.39347C6.02159 3.19127 6.06516 2.9827 6.06516 2.7629C6.06516 1.4439 4.98786 0.375 3.6575 0.375C2.3269 0.375 1.25024 1.4439 1.25024 2.7629C1.25024 4.08149 2.32819 5.15103 3.65857 5.15103C4.11257 5.15103 4.53239 5.0194 4.89449 4.80276L5.39785 5.18155L12.3144 10.1231C11.9489 10.4559 11.6081 10.8346 11.3358 11.2596C10.7837 12.1257 10.4464 13.0788 10.4464 14.1183V14.3351C10.4464 15.0649 10.5862 15.7539 10.8243 16.401C11.0342 16.9661 11.3407 17.4799 11.7206 17.9445L9.4249 20.2262C9.09224 20.1034 8.73096 20.0782 8.38424 20.1537C8.03755 20.229 7.72004 20.4018 7.46972 20.6514C7.29644 20.8224 7.15907 21.0259 7.06562 21.2499C6.97217 21.474 6.92447 21.7142 6.9253 21.9566C6.9247 22.1991 6.97262 22.4392 7.06626 22.6632C7.1599 22.8872 7.29737 23.0905 7.47081 23.2614C7.64316 23.4334 7.84817 23.5698 8.07407 23.6626C8.29994 23.7555 8.54215 23.803 8.78665 23.8023C9.03126 23.803 9.27355 23.7555 9.49952 23.6626C9.7255 23.5698 9.93066 23.4334 10.1031 23.2614C10.2764 23.0904 10.4137 22.887 10.5072 22.6631C10.6007 22.4391 10.6486 22.199 10.648 21.9566C10.648 21.7659 10.618 21.5798 10.5625 21.403L12.9351 19.0498C13.26 19.2726 13.6116 19.4602 13.9891 19.6221C14.734 19.9413 15.5563 20.1359 16.4562 20.1359H16.621C17.6158 20.1359 18.5544 19.9042 19.4365 19.4301C20.3661 18.9295 21.0935 18.2444 21.6433 17.3699C22.1958 16.4932 22.5 15.5244 22.5 14.4585V14.4055C22.5 13.3569 22.2553 12.3895 21.7412 11.5033ZM18.8421 16.4392C18.1981 17.149 17.4578 17.5861 16.6212 17.5861H16.4832C16.0052 17.5861 15.5377 17.4551 15.0799 17.2168C14.5641 16.9545 14.1719 16.5804 13.8508 16.1066C13.5193 15.6416 13.3393 15.1338 13.3393 14.5954V14.4319C13.3393 13.9027 13.4417 13.4008 13.6997 12.9271C13.9756 12.4088 14.3484 12.0059 14.8441 11.6856C15.3306 11.3675 15.8505 11.2115 16.4293 11.2115H16.4832C17.0081 11.2115 17.5049 11.3141 17.974 11.5521C18.4518 11.8058 18.8421 12.1524 19.1447 12.6083C19.4357 13.0548 19.6156 13.5635 19.6697 14.0924C19.6787 14.2037 19.6832 14.3177 19.6832 14.4269C19.6832 15.1541 19.403 15.8279 18.8421 16.4392Z" fill="#F8761F"/>
</g>
</g>
</g>
<defs>
<clipPath id="clip0_16580_20588">
<rect width="24" height="24" fill="white"/>
</clipPath>
</defs>
</svg>
