<svg width="16" height="16" viewBox="0 0 16 16" fill="none" xmlns="http://www.w3.org/2000/svg">
<g clip-path="url(#clip0_3_74096)">
<rect x="1" y="3" width="14" height="10" rx="2" stroke="#155DFC" stroke-width="1.33"/>
<path d="M4.84668 12.8486L8.51141 9.18386C8.73141 8.96386 8.84146 8.8538 8.9683 8.81264C9.07985 8.77636 9.20007 8.77636 9.31163 8.81264C9.43846 8.8538 9.54852 8.96386 9.76852 9.18386L13.4088 12.8241M10.2511 9.66641L11.8447 8.07275C12.0647 7.85275 12.1748 7.74269 12.3016 7.70152C12.4132 7.66525 12.5334 7.66525 12.645 7.70152C12.7718 7.74269 12.8819 7.85275 13.1019 8.07275L14.6955 9.66641" stroke="#155DFC" stroke-width="1.33" stroke-linecap="round" stroke-linejoin="round"/>
<path d="M4.71219 7.78716C5.32584 7.78716 5.8233 7.28972 5.8233 6.67605C5.8233 6.0624 5.32584 5.56494 4.71219 5.56494C4.09854 5.56494 3.60107 6.0624 3.60107 6.67605C3.60107 7.28972 4.09854 7.78716 4.71219 7.78716Z" stroke="#155DFC" stroke-width="1.33" stroke-linecap="round" stroke-linejoin="round"/>
</g>
<defs>
<clipPath id="clip0_3_74096">
<rect width="16" height="16" fill="white"/>
</clipPath>
</defs>
</svg>
