<svg width="14" height="14" viewBox="0 0 14 14" fill="none" xmlns="http://www.w3.org/2000/svg">
<path fill-rule="evenodd" clip-rule="evenodd" d="M7 14C8.85652 14 10.637 13.2625 11.9497 11.9497C13.2625 10.637 14 8.85652 14 7C14 5.14348 13.2625 3.36301 11.9497 2.05025C10.637 0.737498 8.85652 0 7 0C5.14348 0 3.36301 0.737498 2.05025 2.05025C0.737498 3.36301 0 5.14348 0 7C0 8.85652 0.737498 10.637 2.05025 11.9497C3.36301 13.2625 5.14348 14 7 14ZM8.24992 10.5941L8.36192 10.1371C8.27112 10.1753 8.17751 10.2063 8.08192 10.2301C7.96983 10.2632 7.85382 10.2813 7.73696 10.2838C7.5208 10.2838 7.36848 10.248 7.28112 10.1774C7.19264 10.1058 7.14896 9.97136 7.14896 9.77536C7.1685 9.52079 7.21276 9.26872 7.28112 9.02272L7.69888 7.54656C7.74032 7.41104 7.76832 7.26096 7.78288 7.09856C7.79498 6.98542 7.80245 6.87183 7.80528 6.75808C7.81009 6.61523 7.78326 6.47308 7.72672 6.34181C7.67019 6.21053 7.58534 6.09338 7.47824 5.99872C7.25984 5.80384 6.94848 5.70752 6.54528 5.70752C6.32128 5.70752 6.08384 5.74672 5.83296 5.82624C5.56642 5.91126 5.30338 6.00691 5.04448 6.11296L4.93248 6.57104C5.02897 6.5347 5.12686 6.5022 5.22592 6.4736C5.33904 6.44 5.44992 6.4232 5.55856 6.4232C5.78032 6.4232 5.92928 6.46128 6.00656 6.5352C6.08496 6.60912 6.12416 6.7424 6.12416 6.93168C6.12416 7.03584 6.11296 7.15232 6.08608 7.27888C6.05872 7.41418 6.02735 7.54864 5.992 7.68208L5.57312 9.16608C5.53616 9.32288 5.50816 9.46176 5.49136 9.58496C5.47498 9.7056 5.46675 9.82721 5.46672 9.94896C5.46672 10.2536 5.57872 10.5045 5.80384 10.7027C6.02896 10.901 6.3448 10.9995 6.75136 10.9995C7.01568 10.9995 7.24752 10.9659 7.44688 10.8965C7.64624 10.827 7.91392 10.7262 8.24992 10.5941ZM8.176 4.592C8.26887 4.50972 8.34294 4.40843 8.39318 4.29499C8.44343 4.18155 8.46867 4.05862 8.4672 3.93456C8.46857 3.81002 8.4433 3.68663 8.39307 3.57266C8.34285 3.45869 8.26884 3.35678 8.176 3.27376C7.98675 3.0935 7.73395 2.99528 7.47264 3.00048C7.21073 2.99565 6.95738 3.09378 6.76704 3.27376C6.67327 3.35628 6.59834 3.45799 6.54733 3.572C6.49631 3.68601 6.4704 3.80966 6.47136 3.93456C6.47136 4.19216 6.56992 4.41168 6.76592 4.592C6.95669 4.77116 7.20985 4.86881 7.47152 4.86416C7.733 4.8696 7.98609 4.77182 8.176 4.592Z" fill="#B8B9C5"/>
</svg>
