<svg width="12" height="12" viewBox="0 0 12 12" fill="none" xmlns="http://www.w3.org/2000/svg">
<path d="M1.63203 8.98188V8.87688C1.63203 7.99477 1.63203 7.55377 1.8037 7.21683C1.9547 6.92047 2.19564 6.67954 2.492 6.52855C2.82891 6.35688 3.26995 6.35688 4.15203 6.35688H7.51203C8.39414 6.35688 8.83514 6.35688 9.17208 6.52855C9.46844 6.67954 9.70937 6.92047 9.86036 7.21683C10.032 7.55377 10.032 7.99477 10.032 8.87688V8.98188M1.63203 8.98188C1.05213 8.98188 0.582031 9.45196 0.582031 10.0319C0.582031 10.6118 1.05213 11.0819 1.63203 11.0819C2.21193 11.0819 2.68203 10.6118 2.68203 10.0319C2.68203 9.45196 2.21193 8.98188 1.63203 8.98188ZM10.032 8.98188C9.45212 8.98188 8.98203 9.45196 8.98203 10.0319C8.98203 10.6118 9.45212 11.0819 10.032 11.0819C10.6119 11.0819 11.082 10.6118 11.082 10.0319C11.082 9.45196 10.6119 8.98188 10.032 8.98188ZM5.83203 8.98188C5.25212 8.98188 4.78203 9.45196 4.78203 10.0319C4.78203 10.6118 5.25212 11.0819 5.83203 11.0819C6.41195 11.0819 6.88203 10.6118 6.88203 10.0319C6.88203 9.45196 6.41195 8.98188 5.83203 8.98188ZM5.83203 8.98188V3.73188M2.68203 3.73188H8.98203C9.47128 3.73188 9.71588 3.73188 9.90887 3.65195C10.1661 3.54538 10.3706 3.34097 10.4771 3.0837C10.557 2.89073 10.557 2.64612 10.557 2.15688C10.557 1.66764 10.557 1.42302 10.4771 1.23006C10.3706 0.972783 10.1661 0.768374 9.90887 0.661805C9.71588 0.581879 9.47128 0.581879 8.98203 0.581879H2.68203C2.19279 0.581879 1.94818 0.581879 1.75521 0.661805C1.49794 0.768374 1.29353 0.972783 1.18696 1.23006C1.10703 1.42302 1.10703 1.66764 1.10703 2.15688C1.10703 2.64612 1.10703 2.89073 1.18696 3.0837C1.29353 3.34097 1.49794 3.54538 1.75521 3.65195C1.94818 3.73188 2.19279 3.73188 2.68203 3.73188Z" stroke="#9999AD" stroke-width="1.16375" stroke-linecap="round" stroke-linejoin="round"/>
</svg>
