<svg width="24" height="24" viewBox="0 0 24 24" fill="none" xmlns="http://www.w3.org/2000/svg">
<g clip-path="url(#clip0_16580_10512)">
<path fill-rule="evenodd" clip-rule="evenodd" d="M18.0257 11.3273C18.2113 11.3065 18.3893 11.3055 18.5527 11.3273C18.6473 11.1228 18.6635 10.7704 18.5785 10.3867C18.4519 9.8164 18.2809 9.47133 17.9271 9.525C17.5735 9.57867 17.5603 9.99178 17.6869 10.5623C17.7579 10.8832 17.8847 11.1574 18.0257 11.3273ZM14.9893 11.7785C15.2425 11.8832 15.3979 11.9524 15.4589 11.8919C15.4979 11.8541 15.4863 11.7819 15.4257 11.689C15.3009 11.497 15.0441 11.3021 14.7715 11.1927C14.2141 10.9665 13.5493 11.0417 13.0365 11.3891C12.8671 11.5059 12.7065 11.6678 12.7295 11.7661C12.7371 11.798 12.7623 11.8218 12.8217 11.8298C12.9613 11.8449 13.4491 11.6124 14.0111 11.5799C14.4077 11.5573 14.7363 11.674 14.9893 11.7785ZM14.4803 12.0522C14.1507 12.1013 13.9689 12.2037 13.8523 12.2988C13.7527 12.381 13.6911 12.4717 13.6917 12.5354C13.6917 12.5656 13.7057 12.5832 13.7169 12.5921C13.7317 12.6047 13.751 12.6116 13.7709 12.6114C13.8455 12.6114 14.0121 12.5484 14.0121 12.5484C14.4709 12.3937 14.7735 12.4124 15.0733 12.4445C15.2389 12.4621 15.3173 12.4719 15.3537 12.4182C15.3643 12.4031 15.3775 12.3697 15.3443 12.319C15.2669 12.2009 14.9343 12.0015 14.4803 12.0522ZM17.0005 13.057C17.2243 13.1607 17.4707 13.1199 17.5509 12.9663C17.6309 12.8124 17.5145 12.6038 17.2909 12.5001C17.0669 12.3965 16.8207 12.4371 16.7405 12.591C16.6603 12.7448 16.7765 12.9534 17.0005 13.057ZM18.4393 11.8723C18.2573 11.8694 18.1065 12.0575 18.1023 12.2926C18.0983 12.5275 18.2423 12.7202 18.4239 12.7232C18.6059 12.7261 18.7565 12.538 18.7607 12.303C18.7649 12.0681 18.6211 11.8753 18.4393 11.8723Z" fill="#1A1919"/>
<mask id="mask0_16580_10512" style="mask-type:luminance" maskUnits="userSpaceOnUse" x="0" y="0" width="24" height="24">
<path d="M0 0.00390625H23.9636V23.9697H0V0.00390625Z" fill="white"/>
</mask>
<g mask="url(#mask0_16580_10512)">
<path fill-rule="evenodd" clip-rule="evenodd" d="M6.22753 16.1102C6.18213 16.0567 6.10793 16.073 6.03593 16.0888C5.98573 16.0998 5.92873 16.1125 5.86633 16.1113C5.73253 16.1089 5.61933 16.055 5.55573 15.963C5.47293 15.8432 5.47773 15.6644 5.56913 15.4597C5.58153 15.4323 5.59613 15.4017 5.61193 15.3683C5.75773 15.06 6.00193 14.5441 5.72773 14.0524C5.52153 13.6824 5.18513 13.4519 4.78073 13.4035C4.39273 13.3572 3.99273 13.4929 3.73793 13.7578C3.33593 14.176 3.27293 14.7448 3.35073 14.9459C3.37913 15.0196 3.42373 15.04 3.45613 15.0442C3.52453 15.0529 3.62573 15.0058 3.68913 14.8452C3.69556 14.8279 3.70156 14.8105 3.70713 14.793C3.73553 14.708 3.78813 14.5498 3.87433 14.423C3.92556 14.3474 3.99224 14.2822 4.07048 14.2313C4.14871 14.1803 4.23692 14.1446 4.32993 14.1263C4.42494 14.1069 4.52309 14.1055 4.61865 14.1223C4.71422 14.1391 4.80528 14.1738 4.88653 14.2242C5.16833 14.3981 5.27673 14.7233 5.15653 15.0338C5.09433 15.1944 4.99333 15.5013 5.01553 15.7534C5.06053 16.264 5.39393 16.4689 5.69313 16.4908C5.98433 16.5012 6.18773 16.3472 6.23913 16.2345C6.26953 16.168 6.24393 16.1274 6.22753 16.1102Z" fill="#1A1919"/>
</g>
<mask id="mask1_16580_10512" style="mask-type:luminance" maskUnits="userSpaceOnUse" x="0" y="0" width="24" height="24">
<path d="M0 0.00390625H23.9636V23.9697H0V0.00390625Z" fill="white"/>
</mask>
<g mask="url(#mask1_16580_10512)">
<path fill-rule="evenodd" clip-rule="evenodd" d="M8.99476 6.73428C9.94416 5.70058 11.1128 4.80162 12.1598 4.29705C12.196 4.27967 12.2344 4.31671 12.2148 4.35016C12.1318 4.49189 11.9716 4.79576 11.9208 5.02612C11.9128 5.06203 11.9544 5.08905 11.9866 5.06846C12.638 4.65006 13.771 4.20181 14.7646 4.14436C14.8074 4.14171 14.828 4.19349 14.794 4.21806C14.643 4.3271 14.4776 4.47828 14.357 4.63116C14.3522 4.63702 14.3494 4.644 14.3486 4.65132C14.3478 4.65864 14.3493 4.66601 14.3527 4.67262C14.3561 4.67922 14.3614 4.6848 14.368 4.68872C14.3746 4.69265 14.3822 4.69477 14.39 4.69485C15.088 4.69957 16.0716 4.92975 16.7128 5.26858C16.7564 5.29145 16.7254 5.37063 16.6768 5.36023C15.7068 5.15066 14.1188 4.99173 12.4692 5.37082C10.9966 5.70927 9.87256 6.23198 9.05256 6.79381C9.01096 6.82216 8.96136 6.77075 8.99476 6.73428ZM13.723 16.75L13.7234 16.7504L13.7238 16.7515L13.723 16.75ZM17.638 17.1854C17.6523 17.1793 17.6643 17.1691 17.6722 17.1563C17.6802 17.1435 17.6837 17.1286 17.6824 17.1138C17.6804 17.0961 17.671 17.0798 17.6564 17.0686C17.6417 17.0573 17.6229 17.0521 17.6042 17.0539C17.6042 17.0539 15.5782 17.3364 13.6642 16.6761C13.8726 16.0376 14.427 16.2683 15.2648 16.332C16.775 16.4169 18.1286 16.209 19.1288 15.9384C19.9956 15.704 21.1342 15.2418 22.0184 14.5842C22.3166 15.2016 22.422 15.8809 22.422 15.8809C22.422 15.8809 22.6528 15.842 22.846 15.9539C23.028 16.0597 23.1618 16.2795 23.0706 16.8477C22.8846 17.9092 22.4056 18.7708 21.6008 19.5633C21.111 20.0603 20.5162 20.4923 19.8358 20.8064C19.4658 20.9895 19.0803 21.143 18.6832 21.2652C15.6492 22.1988 12.5438 21.1723 11.5426 18.9679C11.4626 18.8023 11.3952 18.6288 11.342 18.4472C10.9154 16.9946 11.2776 15.2516 12.4096 14.1546V14.1542C12.4794 14.0843 12.5506 14.0021 12.5506 13.8986C12.5506 13.812 12.4922 13.7205 12.4416 13.6559C12.0456 13.1145 10.6736 12.1921 10.949 10.4068C11.1466 9.12427 12.337 8.22115 13.4466 8.27463C13.5406 8.27916 13.6344 8.28464 13.7278 8.28975C14.2088 8.31658 14.6284 8.37479 15.0244 8.39047C15.6868 8.4173 16.2828 8.3266 16.9884 7.77252C17.2264 7.58543 17.4174 7.42348 17.7404 7.37189C17.7744 7.3666 17.8588 7.33787 18.0276 7.34543C18.1998 7.35412 18.3636 7.39872 18.5112 7.49113C19.0768 7.84603 19.1572 8.70512 19.1864 9.33365C19.2032 9.69252 19.2492 10.5605 19.265 10.8096C19.301 11.3795 19.46 11.4598 19.7816 11.5598C19.9624 11.6157 20.1302 11.6575 20.3776 11.7231C21.1266 11.9211 21.5706 12.1222 21.8504 12.3803C22.0174 12.5417 22.095 12.7133 22.119 12.8768C22.2074 13.4838 21.619 14.2336 20.061 14.9151C18.358 15.6598 16.2922 15.8484 14.865 15.6986C14.7554 15.6872 14.366 15.6457 14.3648 15.6455C13.2228 15.5005 12.5716 16.8908 13.2568 17.8434C13.6986 18.4574 14.9014 18.8571 16.105 18.8573C18.8646 18.8575 20.9856 17.7471 21.7746 16.788C21.7972 16.7609 21.8182 16.7326 21.8376 16.7034C21.8764 16.6482 21.8444 16.6177 21.7962 16.6489C21.1514 17.0647 18.2882 18.7146 15.2258 18.2182C15.2258 18.2182 14.8536 18.1605 14.5138 18.036C14.2438 17.937 13.679 17.6921 13.6102 17.1459C16.0818 17.8663 17.638 17.1854 17.638 17.1854ZM4.06276 11.6505C3.20316 11.8081 2.44556 12.2669 1.98236 12.9011C1.70556 12.6836 1.18956 12.2624 1.09836 12.098C0.358958 10.7748 1.90576 8.20187 2.98636 6.74883C5.65636 3.15809 9.83876 0.439856 11.775 0.933085C12.0898 1.01699 13.1322 2.15576 13.1322 2.15576C13.1322 2.15576 11.1968 3.16773 9.40216 4.57825C6.98376 6.3329 5.15716 8.88313 4.06276 11.6505ZM5.50716 17.7231C5.37716 17.744 5.24436 17.7524 5.11056 17.7495C3.81716 17.7166 2.42016 16.6194 2.28136 15.3183C2.12796 13.8802 2.90776 12.7734 4.28856 12.5109C4.47932 12.4754 4.674 12.4623 4.86816 12.472C5.64176 12.5119 6.78176 13.0718 7.04216 14.6598C7.27296 16.0663 6.90656 17.4982 5.50716 17.7231ZM23.0268 15.1764C23.0156 15.1396 22.9436 14.8911 22.8444 14.5914C22.745 14.2918 22.6424 14.0809 22.6424 14.0809C23.0402 13.5197 23.0474 13.0179 22.9944 12.7335C22.938 12.3815 22.7824 12.0812 22.4686 11.7707C22.1548 11.4604 21.5132 11.1425 20.6114 10.904C20.5082 10.8766 20.1682 10.7888 20.1382 10.7803C20.136 10.7617 20.1134 9.72899 20.0928 9.28565C20.078 8.96534 20.0488 8.46493 19.884 7.97227C19.6876 7.30518 19.3456 6.72143 18.9186 6.34801C20.097 5.19715 20.8326 3.92912 20.8306 2.84137C20.8276 0.749588 18.1012 0.116707 14.7416 1.42764C14.7382 1.42896 14.0348 1.70997 14.0298 1.71242C14.0266 1.7094 12.743 0.522628 12.7238 0.506754C8.89316 -2.64159 -3.08324 9.90247 0.745758 12.949L1.58276 13.617C1.36556 14.1467 1.28036 14.7539 1.34996 15.4066C1.43936 16.2451 1.89836 17.0488 2.64236 17.67C3.34836 18.2596 4.27716 18.6326 5.17816 18.6319C6.66816 21.8675 10.0728 23.8525 14.0646 23.9642C18.3466 24.084 21.9412 22.1908 23.4474 18.7896C23.5458 18.551 23.964 17.4755 23.964 16.5261C23.964 15.5718 23.3914 15.1764 23.0268 15.1764Z" fill="#1A1919"/>
</g>
</g>
<defs>
<clipPath id="clip0_16580_10512">
<rect width="24" height="24" fill="white"/>
</clipPath>
</defs>
</svg>
