<svg width="14" height="14" viewBox="0 0 14 14" fill="none" xmlns="http://www.w3.org/2000/svg">
<path d="M11.5277 4.4846L7.00006 7M7.00006 7L2.47237 4.4846M7.00006 7V12.0603M11.7941 9.16183V4.83813C11.7941 4.65562 11.7941 4.56436 11.7672 4.48297C11.7434 4.41097 11.7045 4.34487 11.6531 4.28911C11.595 4.22607 11.5153 4.18175 11.3557 4.09312L7.41395 1.90326C7.26288 1.81934 7.18735 1.77737 7.1074 1.76092C7.03655 1.74636 6.96358 1.74636 6.89278 1.76092C6.81278 1.77737 6.73724 1.81934 6.58618 1.90326L2.64442 4.09312C2.48488 4.18175 2.40511 4.22607 2.34701 4.28911C2.29563 4.34487 2.25674 4.41097 2.23294 4.48297C2.20605 4.56436 2.20605 4.65562 2.20605 4.83813V9.16183C2.20605 9.34438 2.20605 9.43563 2.23294 9.51702C2.25674 9.58903 2.29563 9.65514 2.34701 9.71085C2.40511 9.77392 2.48488 9.81824 2.64442 9.90688L6.58618 12.0967C6.73724 12.1807 6.81278 12.2226 6.89278 12.2391C6.96358 12.2536 7.03655 12.2536 7.1074 12.2391C7.18735 12.2226 7.26288 12.1807 7.41395 12.0967L11.3557 9.90688C11.5153 9.81824 11.595 9.77392 11.6531 9.71085C11.7045 9.65514 11.7434 9.58903 11.7672 9.51702C11.7941 9.43563 11.7941 9.34438 11.7941 9.16183Z" stroke="#9999AD" stroke-width="1.16375" stroke-linecap="round" stroke-linejoin="round"/>
</svg>
