<svg width="16" height="16" viewBox="0 0 16 16" fill="none" xmlns="http://www.w3.org/2000/svg">
<path d="M10.1848 13.752C10.1848 13.752 9.3484 14.5 7.99946 14.5C6.65052 14.5 5.81412 13.752 5.81412 13.752M4.72144 2.88965C5.71854 1.87921 6.78417 1.5 7.99946 1.5C9.21474 1.5 10.2804 1.87921 11.2775 2.88965C12.5581 4.18739 12.3701 5.24008 12.3701 7.48412C12.3701 9.72817 13.827 9.72817 13.827 10.4762C13.827 11.2242 13.0986 11.2242 13.0986 11.2242H7.99946H2.90032C2.90032 11.2242 2.17188 11.2242 2.17188 10.4762C2.17188 9.72817 3.62877 9.72817 3.62877 7.48412C3.62877 5.17473 3.44085 4.18739 4.72144 2.88965Z" stroke="#9999AD" stroke-width="1.33" stroke-linecap="round"/>
</svg>
