<svg width="24" height="24" viewBox="0 0 24 24" fill="none" xmlns="http://www.w3.org/2000/svg">
<g clip-path="url(#clip0_53_11333)">
<path d="M13.3333 5.51301V8.26671C13.3333 8.64007 13.3333 8.82676 13.406 8.96937C13.4699 9.09481 13.5719 9.19679 13.6973 9.26071C13.8399 9.33337 14.0266 9.33337 14.4 9.33337H17.1537M14.6667 12.6667H9.33332M14.6667 15.3333H9.33332M10.6667 9.99999H9.33332M13.3333 5.33333H9.86666C8.74655 5.33333 8.1865 5.33333 7.75868 5.55131C7.38235 5.74306 7.07639 6.04902 6.88464 6.42535C6.66666 6.85317 6.66666 7.41322 6.66666 8.53333V15.4667C6.66666 16.5868 6.66666 17.1468 6.88464 17.5747C7.07639 17.951 7.38235 18.2569 7.75868 18.4487C8.1865 18.6667 8.74655 18.6667 9.86666 18.6667H14.1333C15.2535 18.6667 15.8135 18.6667 16.2413 18.4487C16.6177 18.2569 16.9236 17.951 17.1153 17.5747C17.3333 17.1468 17.3333 16.5868 17.3333 15.4667V9.33333L13.3333 5.33333Z" stroke="#060510" stroke-width="1.33333" stroke-linecap="round" stroke-linejoin="round"/>
</g>
<defs>
<clipPath id="clip0_53_11333">
<rect width="24" height="24" fill="white"/>
</clipPath>
</defs>
</svg>
