<svg width="12" height="12" viewBox="0 0 12 12" fill="none" xmlns="http://www.w3.org/2000/svg">
<path d="M3.5 4.25H6M3.5 6H7.5M3.5 9V10.1678C3.5 10.4342 3.5 10.5674 3.55462 10.6358C3.60211 10.6953 3.67413 10.7299 3.75027 10.7298C3.83781 10.7297 3.94183 10.6465 4.14988 10.4801L5.3426 9.5259C5.58625 9.331 5.7081 9.23355 5.84375 9.16425C5.9641 9.10275 6.0922 9.0578 6.2246 9.03065C6.37385 9 6.52985 9 6.84185 9H8.1C8.9401 9 9.3601 9 9.681 8.8365C9.96325 8.6927 10.1927 8.46325 10.3365 8.181C10.5 7.8601 10.5 7.4401 10.5 6.6V3.9C10.5 3.05992 10.5 2.63988 10.3365 2.31902C10.1927 2.03677 9.96325 1.8073 9.681 1.66349C9.3601 1.5 8.9401 1.5 8.1 1.5H3.9C3.05992 1.5 2.63988 1.5 2.31902 1.66349C2.03677 1.8073 1.8073 2.03677 1.66349 2.31902C1.5 2.63988 1.5 3.05992 1.5 3.9V7C1.5 7.465 1.5 7.6975 1.55111 7.88825C1.68981 8.40585 2.09413 8.8102 2.61177 8.9489C2.80252 9 3.03501 9 3.5 9Z" stroke="#9999AD" stroke-linecap="round" stroke-linejoin="round"/>
</svg>
