<svg width="15" height="15" viewBox="0 0 15 15" fill="none" xmlns="http://www.w3.org/2000/svg">
<path d="M13.335 4.08743L13.006 3.51636C12.7571 3.08447 12.6327 2.86853 12.421 2.78242C12.2092 2.69631 11.9698 2.76426 11.4909 2.90015L10.6774 3.12929C10.3717 3.19979 10.0509 3.15979 9.77177 3.01636L9.54717 2.88678C9.30777 2.73345 9.12364 2.50739 9.02171 2.24166L8.79911 1.57674C8.65271 1.13673 8.57951 0.916719 8.40524 0.790879C8.23104 0.665039 7.99957 0.665039 7.53664 0.665039H6.79344C6.33057 0.665039 6.0991 0.665039 5.92484 0.790879C5.7506 0.916719 5.67741 1.13673 5.53103 1.57674L5.30839 2.24166C5.20647 2.50739 5.02234 2.73345 4.78295 2.88678L4.55836 3.01636C4.2792 3.15979 3.95843 3.19979 3.65269 3.12929L2.8392 2.90015C2.36031 2.76426 2.12087 2.69631 1.90915 2.78242C1.69743 2.86853 1.573 3.08447 1.32414 3.51636L0.995085 4.08743C0.761811 4.49226 0.645171 4.69468 0.667811 4.91016C0.690445 5.12564 0.846592 5.29929 1.15888 5.64658L1.84624 6.41503C2.01424 6.6277 2.13351 6.99837 2.13351 7.33163C2.13351 7.66503 2.01428 8.03557 1.84626 8.2483L1.15888 9.01677C0.846592 9.3641 0.690451 9.5377 0.667811 9.75323C0.645171 9.9687 0.761811 10.1711 0.995085 10.5759L1.32413 11.147C1.57299 11.5788 1.69743 11.7948 1.90915 11.8809C2.12087 11.967 2.36032 11.8991 2.83922 11.7632L3.65266 11.534C3.95846 11.4635 4.27928 11.5036 4.55848 11.647L4.78304 11.7766C5.02238 11.93 5.20646 12.156 5.30837 12.4217L5.53103 13.0867C5.67741 13.5267 5.7506 13.7467 5.92484 13.8726C6.0991 13.9984 6.33057 13.9984 6.79344 13.9984H7.53664C7.99957 13.9984 8.23104 13.9984 8.40524 13.8726C8.57951 13.7467 8.65271 13.5267 8.79911 13.0867L9.02177 12.4217C9.12364 12.156 9.30771 11.93 9.54711 11.7766L9.77164 11.647C10.0508 11.5036 10.3716 11.4635 10.6774 11.534L11.4909 11.7632C11.9698 11.8991 12.2092 11.967 12.421 11.8809C12.6327 11.7948 12.7571 11.5788 13.006 11.147L13.335 10.5759C13.5683 10.1711 13.6849 9.9687 13.6623 9.75323C13.6396 9.5377 13.4835 9.3641 13.1712 9.01677L12.4838 8.2483C12.3158 8.03557 12.1966 7.66503 12.1966 7.33163C12.1966 6.99837 12.3159 6.6277 12.4838 6.41503L13.1712 5.64658C13.4835 5.29929 13.6396 5.12564 13.6623 4.91016C13.6849 4.69468 13.5683 4.49226 13.335 4.08743Z" stroke="#9999AD" stroke-width="1.33" stroke-linecap="round"/>
<path d="M9.46972 7.3265C9.46972 8.61516 8.42505 9.65983 7.13638 9.65983C5.84772 9.65983 4.80307 8.61516 4.80307 7.3265C4.80307 6.03783 5.84772 4.99316 7.13638 4.99316C8.42505 4.99316 9.46972 6.03783 9.46972 7.3265Z" stroke="#9999AD" stroke-width="1.33" stroke-linecap="round"/>
</svg>
