<svg width="15" height="15" viewBox="0 0 15 15" fill="none" xmlns="http://www.w3.org/2000/svg">
<path d="M11.8182 9.15149C11.7375 9.33429 11.7135 9.53703 11.7491 9.73363C11.7847 9.93023 11.8785 10.1117 12.0182 10.2545L12.0545 10.2909C12.1673 10.4034 12.2567 10.5371 12.3177 10.6843C12.3787 10.8314 12.4101 10.9892 12.4101 11.1484C12.4101 11.3078 12.3787 11.4655 12.3177 11.6126C12.2567 11.7598 12.1673 11.8934 12.0545 12.006C11.942 12.1187 11.8083 12.2081 11.6611 12.2691C11.514 12.3301 11.3563 12.3615 11.197 12.3615C11.0377 12.3615 10.8799 12.3301 10.7328 12.2691C10.5857 12.2081 10.452 12.1187 10.3394 12.006L10.303 11.9696C10.1602 11.83 9.97881 11.7362 9.78221 11.7006C9.58561 11.6649 9.38281 11.689 9.20001 11.7696C9.02074 11.8465 8.86787 11.974 8.76021 12.1366C8.65254 12.2992 8.59474 12.4898 8.59394 12.6848V12.7878C8.59394 13.1093 8.46627 13.4176 8.23894 13.645C8.01161 13.8722 7.70327 14 7.38181 14C7.06034 14 6.75207 13.8722 6.52474 13.645C6.29741 13.4176 6.16967 13.1093 6.16967 12.7878V12.7333C6.16501 12.5327 6.10007 12.3382 5.98335 12.175C5.86661 12.0117 5.70348 11.8874 5.51516 11.8182C5.33236 11.7375 5.12959 11.7134 4.93299 11.749C4.73638 11.7847 4.55497 11.8784 4.41213 12.0182L4.37577 12.0545C4.26319 12.1672 4.12951 12.2566 3.98236 12.3176C3.83521 12.3786 3.67748 12.41 3.51819 12.41C3.3589 12.41 3.20117 12.3786 3.05402 12.3176C2.90687 12.2566 2.77319 12.1672 2.66061 12.0545C2.54791 11.942 2.45851 11.8082 2.39751 11.6611C2.33651 11.514 2.30511 11.3562 2.30511 11.197C2.30511 11.0376 2.33651 10.8799 2.39751 10.7328C2.45851 10.5856 2.54791 10.452 2.66061 10.3394L2.69697 10.303C2.83669 10.1602 2.93042 9.97876 2.96607 9.78216C3.00172 9.58556 2.97765 9.38276 2.89697 9.19996C2.82015 9.02069 2.69259 8.86783 2.52999 8.76016C2.36739 8.65249 2.17685 8.59469 1.98183 8.59389H1.87879C1.55732 8.59389 1.24901 8.46623 1.02169 8.23889C0.794378 8.01156 0.666672 7.70323 0.666672 7.38176C0.666672 7.06029 0.794378 6.75203 1.02169 6.52469C1.24901 6.29736 1.55732 6.16963 1.87879 6.16963H1.93334C2.13394 6.16496 2.32849 6.10003 2.4917 5.9833C2.65491 5.86657 2.77923 5.70343 2.84849 5.51511C2.92917 5.33231 2.95323 5.12954 2.91759 4.93294C2.88194 4.73633 2.78821 4.55492 2.64849 4.41208L2.61213 4.37572C2.49943 4.26315 2.41003 4.12946 2.34903 3.98231C2.28803 3.83516 2.25663 3.67743 2.25663 3.51814C2.25663 3.35885 2.28803 3.20112 2.34903 3.05397C2.41003 2.90682 2.49943 2.77314 2.61213 2.66057C2.7247 2.54787 2.85839 2.45846 3.00553 2.39747C3.15268 2.33647 3.31041 2.30507 3.46971 2.30507C3.62899 2.30507 3.78673 2.33647 3.93387 2.39747C4.08102 2.45846 4.21471 2.54787 4.32728 2.66057L4.36364 2.69693C4.50648 2.83665 4.68789 2.93037 4.8845 2.96603C5.0811 3.00167 5.28387 2.97761 5.46667 2.89693H5.51516C5.69441 2.82011 5.84729 2.69254 5.95497 2.52994C6.06267 2.36734 6.12047 2.1768 6.12121 1.98178V1.87875C6.12121 1.55727 6.24894 1.24897 6.47627 1.02165C6.70354 0.794333 7.01187 0.666626 7.33334 0.666626C7.65481 0.666626 7.96314 0.794333 8.19041 1.02165C8.41774 1.24897 8.54547 1.55727 8.54547 1.87875V1.93329C8.54621 2.12831 8.60401 2.31885 8.71174 2.48145C8.81941 2.64405 8.97227 2.77162 9.15154 2.84845C9.33434 2.92912 9.53707 2.95319 9.73367 2.91754C9.93027 2.88189 10.1117 2.78817 10.2545 2.64845L10.2909 2.61208C10.4035 2.49938 10.5371 2.40998 10.6843 2.34898C10.8315 2.28798 10.9892 2.25658 11.1485 2.25658C11.3078 2.25658 11.4655 2.28798 11.6127 2.34898C11.7598 2.40998 11.8935 2.49938 12.0061 2.61208C12.1187 2.72465 12.2081 2.85834 12.2691 3.00549C12.3301 3.15263 12.3615 3.31037 12.3615 3.46966C12.3615 3.62895 12.3301 3.78668 12.2691 3.93383C12.2081 4.08097 12.1187 4.21466 12.0061 4.32723L11.9697 4.36359C11.83 4.50643 11.7363 4.68785 11.7006 4.88445C11.6649 5.08105 11.689 5.28383 11.7697 5.46663V5.51511C11.8465 5.69437 11.9741 5.84725 12.1367 5.95493C12.2993 6.06263 12.4898 6.12043 12.6849 6.12116H12.7879C13.1093 6.12116 13.4177 6.24889 13.645 6.47623C13.8723 6.70349 14 7.01183 14 7.33329C14 7.65476 13.8723 7.96309 13.645 8.19036C13.4177 8.41769 13.1093 8.54543 12.7879 8.54543H12.7333C12.5383 8.54616 12.3478 8.60396 12.1852 8.71169C12.0226 8.81936 11.895 8.97223 11.8182 9.15149Z" stroke="#9999AD" stroke-width="1.33333" stroke-linecap="round" stroke-linejoin="round"/>
<path d="M7.33464 9.33459C8.43924 9.33459 9.33464 8.43919 9.33464 7.33459C9.33464 6.22999 8.43924 5.33459 7.33464 5.33459C6.23004 5.33459 5.33464 6.22999 5.33464 7.33459C5.33464 8.43919 6.23004 9.33459 7.33464 9.33459Z" stroke="#9999AD" stroke-width="1.33333" stroke-linecap="round" stroke-linejoin="round"/>
</svg>
