<svg width="24" height="24" viewBox="0 0 24 24" fill="none" xmlns="http://www.w3.org/2000/svg">
<g clip-path="url(#clip0_16580_38964)">
<path d="M5.76449 14.8794C5.76291 15.4872 5.52075 16.0696 5.09096 16.4993C4.66117 16.929 4.07873 17.171 3.47099 17.1724C2.86325 17.171 2.28081 16.929 1.85102 16.4993C1.42124 16.0696 1.17907 15.4872 1.17749 14.8794C1.17894 14.2716 1.42104 13.6891 1.85085 13.2593C2.28065 12.8295 2.86316 12.5874 3.47099 12.5859H5.76449V14.8794ZM6.91999 14.8794C6.92144 14.2716 7.16355 13.6891 7.59335 13.2593C8.02315 12.8295 8.60566 12.5874 9.21349 12.5859C9.82123 12.5875 10.4036 12.8297 10.8333 13.2595C11.263 13.6893 11.505 14.2717 11.5065 14.8794V20.6214C11.505 21.2293 11.2629 21.8118 10.8331 22.2416C10.4033 22.6714 9.82082 22.9135 9.21299 22.9149C8.60525 22.9134 8.02286 22.6712 7.59317 22.2414C7.16348 21.8116 6.92144 21.2292 6.91999 20.6214V14.8794Z" fill="#E01E5A"/>
<path d="M9.21349 5.67244C8.60575 5.67099 8.02331 5.42895 7.59352 4.99926C7.16373 4.56957 6.92158 3.98718 6.91999 3.37944C6.92144 2.77161 7.16355 2.18909 7.59335 1.75929C8.02315 1.32949 8.60566 1.08739 9.21349 1.08594C9.82123 1.08752 10.4036 1.32968 10.8333 1.75947C11.263 2.18925 11.505 2.7717 11.5065 3.37944V5.67244H9.21349ZM9.21349 6.82794C9.82123 6.82952 10.4036 7.07168 10.8333 7.50147C11.263 7.93125 11.505 8.5137 11.5065 9.12144C11.505 9.72918 11.263 10.3116 10.8333 10.7414C10.4036 11.1712 9.82123 11.4134 9.21349 11.4149H3.47099C2.86316 11.4135 2.28065 11.1714 1.85085 10.7416C1.42104 10.3118 1.17894 9.72926 1.17749 9.12144C1.17894 8.51361 1.42104 7.93109 1.85085 7.50129C2.28065 7.07149 2.86316 6.82939 3.47099 6.82794H9.21349Z" fill="#36C5F0"/>
<path d="M18.4219 9.12144C18.4234 8.51361 18.6655 7.93109 19.0953 7.50129C19.5251 7.07149 20.1076 6.82939 20.7154 6.82794C21.3233 6.82939 21.9058 7.07149 22.3356 7.50129C22.7654 7.93109 23.0075 8.51361 23.0089 9.12144C23.0075 9.72926 22.7654 10.3118 22.3356 10.7416C21.9058 11.1714 21.3233 11.4135 20.7154 11.4149H18.4219V9.12144ZM17.2664 9.12144C17.265 9.72918 17.0229 10.3116 16.5933 10.7414C16.1636 11.1712 15.5812 11.4134 14.9734 11.4149C14.3656 11.4135 13.7831 11.1714 13.3533 10.7416C12.9235 10.3118 12.6814 9.72926 12.6799 9.12144V3.37944C12.6814 2.77161 12.9235 2.18909 13.3533 1.75929C13.7831 1.32949 14.3656 1.08739 14.9734 1.08594C15.5812 1.08752 16.1636 1.32968 16.5933 1.75947C17.0229 2.18925 17.265 2.7717 17.2664 3.37944V9.12144Z" fill="#2EB67D"/>
<path d="M14.9734 18.3279C15.5812 18.3295 16.1636 18.5717 16.5933 19.0015C17.0229 19.4313 17.265 20.0137 17.2664 20.6214C17.265 21.2292 17.0229 21.8116 16.5933 22.2414C16.1636 22.6712 15.5812 22.9134 14.9734 22.9149C14.3656 22.9135 13.7831 22.6714 13.3533 22.2416C12.9235 21.8118 12.6814 21.2293 12.6799 20.6214V18.3279H14.9734ZM14.9734 17.1724C14.3657 17.171 13.7832 16.929 13.3535 16.4993C12.9237 16.0696 12.6815 15.4872 12.6799 14.8794C12.6814 14.2716 12.9235 13.6891 13.3533 13.2593C13.7831 12.8295 14.3656 12.5874 14.9734 12.5859H20.7149C21.3228 12.5874 21.9053 12.8295 22.3351 13.2593C22.7649 13.6891 23.007 14.2716 23.0084 14.8794C23.0068 15.4872 22.7647 16.0696 22.3349 16.4993C21.9051 16.929 21.3227 17.171 20.7149 17.1724H14.9734Z" fill="#ECB22E"/>
</g>
<defs>
<clipPath id="clip0_16580_38964">
<rect width="24" height="24" fill="white"/>
</clipPath>
</defs>
</svg>
