<svg width="24" height="24" viewBox="0 0 24 24" fill="none" xmlns="http://www.w3.org/2000/svg">
<g clip-path="url(#clip0_16580_32555)">
<path d="M12 24C18.6274 24 24 18.6274 24 12C24 5.37258 18.6274 0 12 0C5.37258 0 0 5.37258 0 12C0 18.6274 5.37258 24 12 24Z" fill="#635BFF"/>
<path d="M18.3205 12.0889C18.3205 11.1901 17.885 10.4806 17.053 10.4806C16.221 10.4806 15.7117 11.1898 15.7117 12.0819C15.7117 13.1387 16.3086 13.6726 17.1648 13.6726C17.5827 13.6726 17.8986 13.5788 18.1375 13.4443V12.7412C17.8986 12.8605 17.6249 12.9343 17.2773 12.9343C16.9367 12.9343 16.6346 12.815 16.5962 12.4006H18.3132C18.3135 12.3556 18.3205 12.173 18.3205 12.0889ZM16.5861 11.7554C16.5861 11.3586 16.8285 11.1929 17.0497 11.1929C17.2639 11.1929 17.4922 11.357 17.4922 11.7554H16.5861ZM14.3563 10.4806C14.1001 10.4797 13.8535 10.5779 13.6682 10.7546L13.6225 10.5369H12.849V14.6309L13.7267 14.4448L13.7303 13.4511C13.8566 13.5425 14.0427 13.6723 14.3518 13.6723C14.9804 13.6723 15.5528 13.1668 15.5528 12.0538C15.55 11.0354 14.9706 10.4806 14.3563 10.4806ZM14.1453 12.8998C13.9382 12.8998 13.8153 12.826 13.731 12.7358L13.7275 11.4331C13.8189 11.3314 13.9452 11.2611 14.1453 11.2611C14.4648 11.2611 14.686 11.6192 14.686 12.0793C14.6863 12.5488 14.4685 12.8998 14.1456 12.8998H14.1453ZM11.642 10.2734L12.5232 10.0838V9.37109L11.642 9.55719V10.2734ZM11.642 10.5404H12.5232V13.6128H11.642V10.5404ZM10.6975 10.8001L10.6407 10.5404H9.88276V13.6126H10.7605V11.5304C10.9677 11.2599 11.3188 11.3091 11.4275 11.3478V10.5404C11.3155 10.4982 10.9046 10.4209 10.6975 10.8001ZM8.94175 9.77844L8.08604 9.96195L8.08253 12.7745C8.08253 13.2941 8.47229 13.6768 8.9919 13.6768C9.27972 13.6768 9.49042 13.6241 9.60644 13.561V12.8473C9.49417 12.893 8.9394 13.0545 8.9394 12.5349V11.2883H9.60644V10.5404H8.93823L8.94175 9.77844ZM6.56823 11.4322C6.56823 11.2953 6.6805 11.2426 6.86659 11.2426C7.17033 11.249 7.46842 11.3259 7.73729 11.4673V10.6416C7.46034 10.5325 7.16495 10.4779 6.86729 10.4806C6.15456 10.4806 5.68042 10.8528 5.68042 11.4744C5.68042 12.4435 7.01472 12.2891 7.01472 12.7067C7.01472 12.8682 6.87409 12.9209 6.67769 12.9209C6.38636 12.9209 6.01394 12.8016 5.71909 12.6397V13.4755C6.02176 13.6064 6.34789 13.6745 6.67769 13.6756C7.408 13.6756 7.91003 13.314 7.91003 12.6854C7.90604 11.6394 6.56823 11.8255 6.56823 11.4322Z" fill="white"/>
</g>
<defs>
<clipPath id="clip0_16580_32555">
<rect width="24" height="24" fill="white"/>
</clipPath>
</defs>
</svg>
