<svg width="16" height="16" viewBox="0 0 16 16" fill="none" xmlns="http://www.w3.org/2000/svg">
<path d="M6.05999 6.00004C6.21673 5.55449 6.52609 5.17878 6.93333 4.93946C7.34053 4.70015 7.81926 4.61267 8.28479 4.69251C8.75033 4.77237 9.17253 5.01439 9.47673 5.37573C9.78086 5.73706 9.94739 6.19439 9.94666 6.66671C9.94666 8.00004 7.94666 8.66671 7.94666 8.66671M7.99999 11.3334H8.00666M14.6667 8.00004C14.6667 11.6819 11.6819 14.6667 7.99999 14.6667C4.31809 14.6667 1.33333 11.6819 1.33333 8.00004C1.33333 4.31814 4.31809 1.33337 7.99999 1.33337C11.6819 1.33337 14.6667 4.31814 14.6667 8.00004Z" stroke="#9999AD" stroke-width="1.33333" stroke-linecap="round" stroke-linejoin="round"/>
</svg>
