<svg width="12" height="12" viewBox="0 0 12 12" fill="none" xmlns="http://www.w3.org/2000/svg">
<path d="M8.9 5C9.46005 5 9.7401 5 9.954 4.89101C10.1422 4.79514 10.2952 4.64215 10.391 4.45399C10.5 4.24008 10.5 3.96006 10.5 3.4V3.1C10.5 2.53995 10.5 2.25992 10.391 2.04601C10.2952 1.85785 10.1422 1.70486 9.954 1.60899C9.7401 1.5 9.46005 1.5 8.9 1.5H3.1C2.53995 1.5 2.25992 1.5 2.04601 1.60899C1.85785 1.70486 1.70486 1.85785 1.60899 2.04601C1.5 2.25992 1.5 2.53994 1.5 3.1V3.4C1.5 3.96005 1.5 4.24008 1.60899 4.45399C1.70486 4.64215 1.85785 4.79514 2.04601 4.89101C2.25992 5 2.53994 5 3.1 5H8.9Z" stroke="#1447E6" stroke-linecap="round" stroke-linejoin="round"/>
<path d="M8.9 10.5C9.46005 10.5 9.7401 10.5 9.954 10.391C10.1422 10.2951 10.2952 10.1421 10.391 9.954C10.5 9.7401 10.5 9.46005 10.5 8.9V8.6C10.5 8.03995 10.5 7.7599 10.391 7.546C10.2952 7.35785 10.1422 7.20485 9.954 7.109C9.7401 7 9.46005 7 8.9 7H3.1C2.53995 7 2.25992 7 2.04601 7.109C1.85785 7.20485 1.70486 7.35785 1.60899 7.546C1.5 7.7599 1.5 8.03995 1.5 8.6V8.9C1.5 9.46005 1.5 9.7401 1.60899 9.954C1.70486 10.1421 1.85785 10.2951 2.04601 10.391C2.25992 10.5 2.53994 10.5 3.1 10.5H8.9Z" stroke="#1447E6" stroke-linecap="round" stroke-linejoin="round"/>
</svg>
