<svg width="24" height="24" viewBox="0 0 24 24" fill="none" xmlns="http://www.w3.org/2000/svg">
<g clip-path="url(#clip0_16580_33182)">
<path d="M16.739 8.99632H22.9378C23.5234 8.99632 23.9981 9.50655 23.9981 10.1359V16.2042C23.9981 18.5174 22.2533 20.3926 20.1009 20.3926H20.0825C17.9302 20.393 16.1851 18.518 16.1848 16.2048V9.59193C16.1848 9.26298 16.4329 8.99632 16.739 8.99632ZM20.9286 7.7967C22.3156 7.7967 23.44 6.58825 23.44 5.09757C23.44 3.60689 22.3156 2.39844 20.9286 2.39844C19.5416 2.39844 18.4172 3.60689 18.4172 5.09757C18.4172 6.58825 19.5416 7.7967 20.9286 7.7967Z" fill="#5059C9"/>
<path d="M13.1151 7.7975C15.1187 7.7975 16.7428 6.05197 16.7428 3.89875C16.7428 1.74553 15.1187 0 13.1151 0C11.1117 0 9.48753 1.74553 9.48753 3.89875C9.48753 6.05197 11.1117 7.7975 13.1151 7.7975ZM17.9522 8.99711H7.72004C7.14138 9.0125 6.68362 9.52861 6.69705 10.1505V17.0717C6.61624 20.8039 9.36361 23.9009 12.8362 23.9922C16.3087 23.9009 19.056 20.8039 18.9752 17.0717V10.1505C18.9886 9.52861 18.5309 9.0125 17.9522 8.99711Z" fill="#7B83EB"/>
<path opacity="0.1" d="M13.3942 8.99609V18.695C13.3914 19.1397 13.1407 19.5393 12.758 19.7086C12.6362 19.764 12.5052 19.7926 12.3729 19.7926H7.1882C7.11565 19.5947 7.04868 19.3968 6.99286 19.1929C6.7975 18.5046 6.69783 17.7891 6.69707 17.0695V10.1477C6.68365 9.52679 7.14065 9.01148 7.71838 8.99609H13.3942Z" fill="black"/>
<path opacity="0.2" d="M12.8362 8.99609V19.2948C12.8361 19.437 12.8096 19.5777 12.758 19.7086C12.6005 20.1199 12.2287 20.3895 11.8148 20.3924H7.45051C7.35563 20.1945 7.26634 19.9965 7.1882 19.7926C7.11006 19.5887 7.04868 19.3968 6.99286 19.1929C6.7975 18.5046 6.69783 17.7891 6.69707 17.0695V10.1477C6.68365 9.52679 7.14065 9.01148 7.71838 8.99609H12.8362Z" fill="black"/>
<path opacity="0.2" d="M12.8362 8.99609V18.0951C12.8319 18.6995 12.3771 19.1882 11.8148 19.1929H6.99286C6.7975 18.5046 6.69783 17.7891 6.69707 17.0695V10.1477C6.68365 9.52679 7.14065 9.01148 7.71838 8.99609H12.8362Z" fill="black"/>
<path opacity="0.2" d="M12.278 8.99609V18.0951C12.2738 18.6995 11.819 19.1882 11.2567 19.1929H6.99286C6.7975 18.5046 6.69783 17.7891 6.69707 17.0695V10.1477C6.68365 9.52679 7.14065 9.01148 7.71838 8.99609H12.278Z" fill="black"/>
<path opacity="0.1" d="M13.3944 5.89451V7.7839C13.2995 7.7899 13.2103 7.7959 13.1153 7.7959C13.0204 7.7959 12.9312 7.78991 12.8363 7.7839C12.6479 7.77047 12.461 7.73834 12.2781 7.68794C11.148 7.4003 10.2143 6.54847 9.76673 5.39668C9.68972 5.20325 9.62992 5.00242 9.58813 4.79688H12.373C12.9362 4.79917 13.3922 5.28925 13.3944 5.89451Z" fill="black"/>
<path opacity="0.2" d="M12.8362 6.49607V7.78566C12.6478 7.77223 12.4609 7.7401 12.278 7.6897C11.1479 7.40206 10.2142 6.55023 9.7666 5.39844H11.8148C12.378 5.40073 12.834 5.89082 12.8362 6.49607Z" fill="black"/>
<path opacity="0.2" d="M12.8362 6.49607V7.78566C12.6478 7.77223 12.4609 7.7401 12.278 7.6897C11.1479 7.40206 10.2142 6.55023 9.7666 5.39844H11.8148C12.378 5.40073 12.834 5.89082 12.8362 6.49607Z" fill="black"/>
<path opacity="0.2" d="M12.278 6.49608V7.6897C11.1479 7.40206 10.2142 6.55023 9.7666 5.39844H11.2567C11.8199 5.40074 12.2759 5.89083 12.278 6.49608Z" fill="black"/>
<path d="M1.02299 5.39844H11.2551C11.8202 5.39844 12.2781 5.89068 12.2781 6.49788V17.4947C12.2781 18.102 11.8201 18.5942 11.2551 18.5942H1.02299C0.458003 18.5942 0 18.1019 0 17.4947V6.49788C0 5.89068 0.458013 5.39844 1.02299 5.39844Z" fill="#5059C9"/>
<path d="M8.8313 9.5831H6.78587V15.5692H5.48272V9.5831H3.44678V8.42188H8.8313V9.5831Z" fill="white"/>
</g>
<defs>
<clipPath id="clip0_16580_33182">
<rect width="24" height="24" fill="white"/>
</clipPath>
</defs>
</svg>
