<svg width="15" height="15" viewBox="0 0 15 15" fill="none" xmlns="http://www.w3.org/2000/svg">
<path d="M2.24674 13.9134V10.5801V13.9134ZM2.24674 3.91341V0.580078V3.91341ZM0.580078 2.24674H3.91341H0.580078ZM0.580078 12.2467H3.91341H0.580078ZM7.91341 1.24674L6.75728 4.25265C6.56928 4.74147 6.47528 4.98588 6.32908 5.19147C6.19954 5.37368 6.04034 5.53287 5.85814 5.66243C5.65255 5.80862 5.40814 5.90262 4.91932 6.09061L1.91341 7.24674L4.91932 8.40288C5.40814 8.59088 5.65255 8.68488 5.85814 8.83108C6.04034 8.96061 6.19954 9.11981 6.32908 9.30201C6.47528 9.50761 6.56928 9.75201 6.75728 10.2408L7.91341 13.2467L9.06954 10.2408C9.25754 9.75201 9.35154 9.50761 9.49774 9.30201C9.62728 9.11981 9.78648 8.96061 9.96868 8.83108C10.1743 8.68488 10.4187 8.59088 10.9075 8.40288L13.9134 7.24674L10.9075 6.09061C10.4187 5.90262 10.1743 5.80861 9.96868 5.66243C9.78648 5.53287 9.62728 5.37368 9.49774 5.19147C9.35154 4.98588 9.25754 4.74147 9.06954 4.25265L7.91341 1.24674Z" fill="#1447E6"/>
<path d="M2.24674 13.9134V10.5801M2.24674 3.91341V0.580078M0.580078 2.24674H3.91341M0.580078 12.2467H3.91341M7.91341 1.24674L6.75728 4.25265C6.56928 4.74147 6.47528 4.98588 6.32908 5.19147C6.19954 5.37368 6.04034 5.53287 5.85814 5.66243C5.65255 5.80862 5.40814 5.90262 4.91932 6.09061L1.91341 7.24674L4.91932 8.40288C5.40814 8.59088 5.65255 8.68488 5.85814 8.83108C6.04034 8.96061 6.19954 9.11981 6.32908 9.30201C6.47528 9.50761 6.56928 9.75201 6.75728 10.2408L7.91341 13.2467L9.06954 10.2408C9.25754 9.75201 9.35154 9.50761 9.49774 9.30201C9.62728 9.11981 9.78648 8.96061 9.96868 8.83108C10.1743 8.68488 10.4187 8.59088 10.9075 8.40288L13.9134 7.24674L10.9075 6.09061C10.4187 5.90262 10.1743 5.80861 9.96868 5.66243C9.78648 5.53287 9.62728 5.37368 9.49774 5.19147C9.35154 4.98588 9.25754 4.74147 9.06954 4.25265L7.91341 1.24674Z" stroke="#1447E6" stroke-width="1.16" stroke-linecap="round" stroke-linejoin="round"/>
</svg>
