<svg width="22" height="16" viewBox="0 0 22 16" fill="none" xmlns="http://www.w3.org/2000/svg">
<path d="M18.9011 9.98579L18.555 9.38808C18.4135 9.14297 18.0596 9.14297 17.918 9.38808L17.5733 9.98579L14.9164 14.5839L14.5716 15.1816C14.4301 15.4267 14.607 15.7335 14.8901 15.7335H21.5829C21.866 15.7335 22.043 15.4267 21.9014 15.1816L18.9011 9.98579Z" fill="#060510"/>
<path d="M15.5807 6.53053L16.0316 5.748C16.1626 5.51993 16.1626 5.23943 16.0316 5.01267L15.5807 4.23015L13.5883 0.78154L13.2436 0.183834C13.102 -0.061278 12.7481 -0.061278 12.6065 0.183834L6.948 9.97782L3.62785 4.23015C3.33293 3.71895 2.59497 3.71895 2.30005 4.23015L0.307701 7.67875C-0.102567 8.39049 -0.102567 9.26739 0.307701 9.97782L3.41551 15.3572C3.54658 15.5852 3.79039 15.7255 4.05254 15.7255H9.84216C10.1056 15.7255 10.3481 15.5852 10.4792 15.3572L15.5793 6.52791L15.5807 6.53053Z" fill="#060510"/>
</svg>
