<svg width="22" height="24" viewBox="0 0 22 24" fill="none" xmlns="http://www.w3.org/2000/svg">
<g clip-path="url(#clip0_9456_252370)">
<path d="M18.9011 14.1186L18.555 13.5209C18.4135 13.2758 18.0596 13.2758 17.918 13.5209L17.5733 14.1186L14.9164 18.7167L14.5716 19.3144C14.4301 19.5596 14.607 19.8663 14.8901 19.8663H21.5829C21.866 19.8663 22.043 19.5596 21.9014 19.3144L18.9011 14.1186Z" fill="#060510"/>
<path d="M15.5807 10.6633L16.0316 9.88082C16.1626 9.65274 16.1626 9.37224 16.0316 9.14548L15.5807 8.36296L13.5883 4.91435L13.2436 4.31665C13.102 4.07153 12.7481 4.07153 12.6065 4.31665L6.948 14.1106L3.62785 8.36296C3.33293 7.85176 2.59497 7.85176 2.30005 8.36296L0.307701 11.8116C-0.102567 12.5233 -0.102567 13.4002 0.307701 14.1106L3.41551 19.49C3.54658 19.7181 3.79039 19.8583 4.05254 19.8583H9.84216C10.1056 19.8583 10.3481 19.7181 10.4792 19.49L15.5793 10.6607L15.5807 10.6633Z" fill="#060510"/>
</g>
<defs>
<clipPath id="clip0_9456_252370">
<rect width="22" height="24" fill="white"/>
</clipPath>
</defs>
</svg>
