<svg width="100" height="24" viewBox="0 0 100 24" fill="none" xmlns="http://www.w3.org/2000/svg">
<path d="M18.9011 14.1186L18.555 13.5209C18.4135 13.2758 18.0596 13.2758 17.918 13.5209L17.5733 14.1186L14.9164 18.7167L14.5716 19.3144C14.4301 19.5596 14.607 19.8663 14.8901 19.8663H21.5829C21.866 19.8663 22.043 19.5596 21.9014 19.3144L18.9011 14.1186Z" fill="#060510"/>
<path d="M15.5807 10.6633L16.0316 9.88082C16.1626 9.65274 16.1626 9.37224 16.0316 9.14548L15.5807 8.36296L13.5883 4.91435L13.2436 4.31665C13.102 4.07153 12.7481 4.07153 12.6065 4.31665L6.948 14.1106L3.62785 8.36296C3.33293 7.85176 2.59497 7.85176 2.30005 8.36296L0.307701 11.8116C-0.102567 12.5233 -0.102567 13.4002 0.307701 14.1106L3.41551 19.49C3.54658 19.7181 3.79039 19.8583 4.05254 19.8583H9.84216C10.1056 19.8583 10.3481 19.7181 10.4792 19.49L15.5793 10.6607L15.5807 10.6633Z" fill="#060510"/>
<path d="M29.6065 4.45158L33.2627 15.5095H33.4068L37.0562 4.45158H39.855L34.9022 18.5004H31.7605L26.8146 4.45158H29.6065Z" fill="#060510"/>
<path d="M43.2438 18.713C42.5761 18.713 41.9747 18.5941 41.4396 18.3563C40.9092 18.1139 40.4884 17.7572 40.1774 17.2862C39.871 16.8151 39.7178 16.2344 39.7178 15.5438C39.7178 14.9493 39.8276 14.4577 40.0471 14.069C40.2666 13.6802 40.5662 13.3693 40.9457 13.136C41.3253 12.9028 41.7529 12.7267 42.2285 12.6078C42.7087 12.4844 43.2049 12.3952 43.7171 12.3403C44.3345 12.2763 44.8352 12.2191 45.2194 12.1688C45.6035 12.1139 45.8825 12.0316 46.0563 11.9219C46.2346 11.8075 46.3238 11.6315 46.3238 11.3937V11.3525C46.3238 10.8357 46.1706 10.4356 45.8642 10.152C45.5578 9.8685 45.1165 9.72673 44.5403 9.72673C43.932 9.72673 43.4496 9.85935 43.0928 10.1246C42.7407 10.3898 42.5029 10.7031 42.3794 11.0644L40.0608 10.7351C40.2438 10.0949 40.5456 9.55981 40.9663 9.12993C41.3871 8.69548 41.9015 8.37078 42.5098 8.15585C43.118 7.93633 43.7903 7.82658 44.5265 7.82658C45.0342 7.82658 45.5395 7.88603 46.0425 8.00493C46.5456 8.12383 47.0052 8.32048 47.4214 8.59487C47.8375 8.86469 48.1714 9.23283 48.4229 9.69929C48.679 10.1658 48.807 10.7488 48.807 11.4485V18.5004H46.4198V17.0529H46.3375C46.1866 17.3456 45.9739 17.62 45.6996 17.8761C45.4297 18.1276 45.089 18.3312 44.6775 18.4866C44.2704 18.6376 43.7925 18.713 43.2438 18.713ZM43.8886 16.8883C44.3871 16.8883 44.8192 16.79 45.1851 16.5933C45.5509 16.3921 45.8322 16.1269 46.0288 15.7976C46.23 15.4683 46.3307 15.1094 46.3307 14.7206V13.479C46.2529 13.543 46.1203 13.6025 45.9328 13.6574C45.7499 13.7122 45.5441 13.7603 45.3154 13.8014C45.0867 13.8426 44.8604 13.8792 44.6363 13.9112C44.4122 13.9432 44.2178 13.9706 44.0532 13.9935C43.6828 14.0438 43.3512 14.1261 43.0585 14.2404C42.7659 14.3548 42.5349 14.5148 42.3657 14.7206C42.1965 14.9219 42.1119 15.1825 42.1119 15.5026C42.1119 15.96 42.2788 16.3052 42.6127 16.5385C42.9465 16.7717 43.3718 16.8883 43.8886 16.8883Z" fill="#060510"/>
<path d="M53.4974 4.45158V18.5004H51.0142V4.45158H53.4974Z" fill="#060510"/>
<path d="M55.7612 18.5004V7.96377H58.2445V18.5004H55.7612ZM57.0097 6.46835C56.6164 6.46835 56.278 6.33801 55.9945 6.07734C55.7109 5.81209 55.5692 5.49426 55.5692 5.12383C55.5692 4.74883 55.7109 4.431 55.9945 4.17033C56.278 3.90508 56.6164 3.77246 57.0097 3.77246C57.4076 3.77246 57.746 3.90508 58.025 4.17033C58.3085 4.431 58.4503 4.74883 58.4503 5.12383C58.4503 5.49426 58.3085 5.81209 58.025 6.07734C57.746 6.33801 57.4076 6.46835 57.0097 6.46835Z" fill="#060510"/>
<path d="M64.4183 18.6856C63.5906 18.6856 62.8497 18.4729 62.1958 18.0476C61.5418 17.6223 61.025 17.0049 60.6455 16.1955C60.2659 15.386 60.0761 14.4028 60.0761 13.2458C60.0761 12.0751 60.2682 11.0872 60.6523 10.2824C61.041 9.47292 61.5647 8.8624 62.2232 8.45081C62.8817 8.03466 63.6157 7.82658 64.4252 7.82658C65.0426 7.82658 65.5502 7.93176 65.948 8.14213C66.3459 8.34792 66.6615 8.59716 66.8947 8.88984C67.1279 9.17795 67.3086 9.45005 67.4366 9.70615H67.5395V4.45158H70.0296V18.5004H67.5875V16.8403H67.4366C67.3086 17.0964 67.1233 17.3685 66.881 17.6566C66.6386 17.9401 66.3185 18.1825 65.9206 18.3837C65.5227 18.585 65.022 18.6856 64.4183 18.6856ZM65.1112 16.6482C65.6371 16.6482 66.0852 16.5065 66.4557 16.2229C66.8261 15.9348 67.1073 15.5347 67.2994 15.0225C67.4915 14.5103 67.5875 13.9135 67.5875 13.2321C67.5875 12.5507 67.4915 11.9584 67.2994 11.4554C67.1119 10.9523 66.833 10.5613 66.4625 10.2824C66.0967 10.0034 65.6462 9.86392 65.1112 9.86392C64.5578 9.86392 64.0959 10.008 63.7255 10.2961C63.3551 10.5842 63.0761 10.9821 62.8886 11.4897C62.7011 11.9973 62.6073 12.5781 62.6073 13.2321C62.6073 13.8906 62.7011 14.4783 62.8886 14.995C63.0807 15.5072 63.3619 15.9119 63.7323 16.2092C64.1073 16.5019 64.5669 16.6482 65.1112 16.6482Z" fill="#060510"/>
<path d="M75.418 18.713C74.7503 18.713 74.149 18.5941 73.6139 18.3563C73.0834 18.1139 72.6627 17.7572 72.3517 17.2862C72.0453 16.8151 71.8921 16.2344 71.8921 15.5438C71.8921 14.9493 72.0019 14.4577 72.2214 14.069C72.4409 13.6802 72.7404 13.3693 73.12 13.136C73.4996 12.9028 73.9272 12.7267 74.4028 12.6078C74.8829 12.4844 75.3791 12.3952 75.8913 12.3403C76.5087 12.2763 77.0095 12.2191 77.3936 12.1688C77.7778 12.1139 78.0567 12.0316 78.2305 11.9219C78.4089 11.8075 78.498 11.6315 78.498 11.3937V11.3525C78.498 10.8357 78.3448 10.4356 78.0384 10.152C77.732 9.8685 77.2907 9.72673 76.7145 9.72673C76.1063 9.72673 75.6238 9.85935 75.2671 10.1246C74.915 10.3898 74.6772 10.7031 74.5537 11.0644L72.2351 10.7351C72.418 10.0949 72.7198 9.55981 73.1406 9.12993C73.5613 8.69548 74.0758 8.37078 74.684 8.15585C75.2922 7.93633 75.9645 7.82658 76.7008 7.82658C77.2084 7.82658 77.7137 7.88603 78.2168 8.00493C78.7198 8.12383 79.1794 8.32048 79.5956 8.59487C80.0118 8.86469 80.3456 9.23283 80.5971 9.69929C80.8532 10.1658 80.9813 10.7488 80.9813 11.4485V18.5004H78.5941V17.0529H78.5118C78.3608 17.3456 78.1482 17.62 77.8738 17.8761C77.604 18.1276 77.2633 18.3312 76.8517 18.4866C76.4447 18.6376 75.9668 18.713 75.418 18.713ZM76.0628 16.8883C76.5613 16.8883 76.9935 16.79 77.3593 16.5933C77.7252 16.3921 78.0064 16.1269 78.2031 15.7976C78.4043 15.4683 78.5049 15.1094 78.5049 14.7206V13.479C78.4272 13.543 78.2945 13.6025 78.107 13.6574C77.9241 13.7122 77.7183 13.7603 77.4897 13.8014C77.261 13.8426 77.0346 13.8792 76.8105 13.9112C76.5865 13.9432 76.3921 13.9706 76.2275 13.9935C75.857 14.0438 75.5255 14.1261 75.2328 14.2404C74.9401 14.3548 74.7092 14.5148 74.54 14.7206C74.3708 14.9219 74.2861 15.1825 74.2861 15.5026C74.2861 15.96 74.4531 16.3052 74.7869 16.5385C75.1208 16.7717 75.5461 16.8883 76.0628 16.8883Z" fill="#060510"/>
<path d="M88.4499 7.96377V9.8845H82.3927V7.96377H88.4499ZM83.8882 5.43938H86.3714V15.3312C86.3714 15.665 86.4217 15.9211 86.5223 16.0994C86.6275 16.2732 86.7647 16.3921 86.9339 16.4562C87.1031 16.5202 87.2906 16.5522 87.4964 16.5522C87.6519 16.5522 87.7936 16.5408 87.9217 16.5179C88.0543 16.495 88.1549 16.4744 88.2235 16.4562L88.642 18.3975C88.5093 18.4432 88.3196 18.4935 88.0726 18.5484C87.8302 18.6033 87.533 18.6353 87.1808 18.6444C86.5589 18.6627 85.9987 18.569 85.5002 18.3632C85.0017 18.1528 84.6061 17.8281 84.3135 17.3891C84.0254 16.9501 83.8836 16.4013 83.8882 15.7427V5.43938Z" fill="#060510"/>
<path d="M93.2689 18.713C92.6013 18.713 91.9999 18.5941 91.4648 18.3563C90.9343 18.1139 90.5136 17.7572 90.2026 17.2862C89.8962 16.8151 89.743 16.2344 89.743 15.5438C89.743 14.9493 89.8528 14.4577 90.0723 14.069C90.2918 13.6802 90.5914 13.3693 90.9709 13.136C91.3505 12.9028 91.7781 12.7267 92.2537 12.6078C92.7339 12.4844 93.2301 12.3952 93.7423 12.3403C94.3596 12.2763 94.8604 12.2191 95.2446 12.1688C95.6287 12.1139 95.9077 12.0316 96.0814 11.9219C96.2598 11.8075 96.349 11.6315 96.349 11.3937V11.3525C96.349 10.8357 96.1958 10.4356 95.8894 10.152C95.583 9.8685 95.1417 9.72673 94.5654 9.72673C93.9572 9.72673 93.4747 9.85935 93.118 10.1246C92.7659 10.3898 92.5281 10.7031 92.4046 11.0644L90.086 10.7351C90.2689 10.0949 90.5708 9.55981 90.9915 9.12993C91.4122 8.69548 91.9267 8.37078 92.535 8.15585C93.1432 7.93633 93.8154 7.82658 94.5517 7.82658C95.0593 7.82658 95.5647 7.88603 96.0677 8.00493C96.5708 8.12383 97.0304 8.32048 97.4465 8.59487C97.8627 8.86469 98.1965 9.23283 98.4481 9.69929C98.7042 10.1658 98.8322 10.7488 98.8322 11.4485V18.5004H96.445V17.0529H96.3627C96.2118 17.3456 95.9991 17.62 95.7247 17.8761C95.4549 18.1276 95.1142 18.3312 94.7026 18.4866C94.2956 18.6376 93.8177 18.713 93.2689 18.713ZM93.9138 16.8883C94.4122 16.8883 94.8444 16.79 95.2103 16.5933C95.5761 16.3921 95.8574 16.1269 96.054 15.7976C96.2552 15.4683 96.3558 15.1094 96.3558 14.7206V13.479C96.2781 13.543 96.1455 13.6025 95.958 13.6574C95.775 13.7122 95.5693 13.7603 95.3406 13.8014C95.1119 13.8426 94.8856 13.8792 94.6615 13.9112C94.4374 13.9432 94.243 13.9706 94.0784 13.9935C93.708 14.0438 93.3764 14.1261 93.0837 14.2404C92.791 14.3548 92.5601 14.5148 92.3909 14.7206C92.2217 14.9219 92.1371 15.1825 92.1371 15.5026C92.1371 15.96 92.304 16.3052 92.6378 16.5385C92.9717 16.7717 93.397 16.8883 93.9138 16.8883Z" fill="#060510"/>
</svg>
