<svg width="24" height="24" viewBox="0 0 24 24" fill="none" xmlns="http://www.w3.org/2000/svg">
<g clip-path="url(#clip0_16580_23381)">
<path fill-rule="evenodd" clip-rule="evenodd" d="M15 12.0052C15 12.8706 14.8442 13.7295 14.5392 14.5388C13.729 14.8439 12.8705 15.0003 12.0048 15.0004H11.9948C11.1294 15.0002 10.2711 14.8438 9.46117 14.5388C9.1559 13.729 8.99954 12.8706 8.99963 12.0052V11.9948C8.99963 11.1297 9.15545 10.2713 9.46043 9.46191C10.2704 9.15614 11.1291 8.99976 11.9948 9.00037H12.0048C12.8706 8.99963 13.7291 9.15545 14.5392 9.46191C14.8444 10.2715 15.0006 11.1296 15 11.9948V12.0052ZM23.8335 10.0002H16.8284L21.7809 5.04665C21.3927 4.50018 20.9592 3.98736 20.4849 3.5136C20.011 3.03983 19.4985 2.60633 18.9526 2.2176L13.9998 7.17194V0.167262C13.341 0.0560557 12.674 0.000107126 12.0059 0L11.9937 0C11.3143 0 10.6486 0.0579692 9.99988 0.166892V7.1712L5.04738 2.21908C4.50097 2.60708 3.98837 3.04063 3.51508 3.51508L3.51286 3.51655C3.03948 3.98987 2.60635 4.50179 2.21797 5.04702L7.17157 9.99951H0.167262C0.167262 9.99951 0 11.3154 0 11.9963V12.0037C0 12.6846 0.0576 13.3514 0.166892 14.0001H7.1712L2.21908 18.9526C2.99807 20.0463 3.95395 21.0024 5.04738 21.7817L10.0006 16.8284V23.8338C10.6587 23.9436 11.3247 23.9992 11.9919 24H12.0089C12.676 23.9992 13.342 23.9436 14.0001 23.8338V16.8281L18.9526 21.7817C19.4988 21.3933 20.0113 20.9598 20.4849 20.4857L20.486 20.4849C20.9597 20.0111 21.393 19.4986 21.7813 18.9526L16.8284 14.0005H23.8338C23.9424 13.3525 23.9993 12.6879 24 12.0092V11.9915C23.9995 11.3243 23.9436 10.6583 23.8335 10.0002Z" fill="#FF4A00"/>
</g>
<defs>
<clipPath id="clip0_16580_23381">
<rect width="24" height="24" fill="white"/>
</clipPath>
</defs>
</svg>
